<?xml version="1.0" standalone="no"?>
<!DOCTYPE svg PUBLIC "-//W3C//DTD SVG 20010904//EN"
 "http://www.w3.org/TR/2001/REC-SVG-20010904/DTD/svg10.dtd">
<svg version="1.0" xmlns="http://www.w3.org/2000/svg"
 width="1672.000000pt" height="1117.000000pt" viewBox="0 0 1672.000000 1117.000000"
 preserveAspectRatio="xMidYMid meet">

<g transform="translate(0.000000,1117.000000) scale(0.100000,-0.100000)"
fill="#000000" stroke="none">
<path d="M0 5590 l0 -5580 1175 0 c777 0 1175 3 1175 10 0 7 -395 10 -1165 10
l-1165 0 0 5560 0 5560 8340 0 8340 0 0 -5560 0 -5560 -975 0 c-643 0 -975 -3
-975 -10 0 -7 335 -10 985 -10 l985 0 0 5580 0 5580 -8360 0 -8360 0 0 -5580z"/>
<path d="M11747 10556 c-28 -29 -78 -116 -72 -126 4 -6 1 -9 -5 -8 -12 3 -52
-60 -243 -377 -136 -228 -226 -382 -352 -610 -15 -27 -74 -131 -130 -230 -139
-245 -372 -695 -452 -871 -102 -222 -141 -324 -228 -584 -67 -199 -74 -217
-106 -239 -57 -39 -31 -43 -1319 205 -157 30 -431 84 -610 119 -384 76 -673
132 -900 175 -91 17 -199 38 -240 45 -41 8 -196 37 -345 65 -148 28 -278 52
-287 54 -11 3 -18 -2 -18 -11 0 -8 4 -12 9 -9 5 4 7 -3 4 -13 -9 -34 80 -112
172 -151 44 -18 94 -34 112 -34 17 -1 29 -4 27 -7 -2 -5 370 -101 441 -113 11
-2 67 -15 125 -29 201 -49 456 -109 930 -217 47 -11 193 -44 325 -74 1036
-235 1115 -254 1115 -272 0 -8 -15 -21 -32 -29 -18 -8 -77 -33 -130 -56 -58
-24 -95 -45 -91 -52 3 -6 1 -7 -5 -3 -6 4 -51 -13 -100 -38 -84 -42 -90 -48
-111 -95 -31 -74 -35 -103 -21 -175 18 -99 78 -166 148 -166 18 0 107 27 198
60 91 33 173 60 183 60 16 0 18 -16 24 -167 4 -91 7 -1441 7 -2998 l0 -2833
33 -5 c41 -6 566 -1 573 6 7 7 -35 2246 -66 3532 -5 215 -12 541 -15 725 -4
184 -13 607 -21 940 -17 717 -17 840 -4 840 5 0 37 -49 71 -110 35 -63 66
-107 72 -103 6 3 7 1 3 -6 -4 -6 9 -42 30 -79 141 -255 494 -909 619 -1147 69
-131 111 -209 135 -250 19 -33 186 -341 270 -500 29 -55 81 -152 115 -215 35
-63 73 -135 86 -160 12 -25 53 -99 89 -165 37 -66 97 -178 135 -250 38 -71
104 -195 148 -275 44 -80 102 -185 129 -235 58 -107 84 -143 95 -131 4 4 7 94
7 199 l-2 192 -42 90 c-23 50 -70 151 -105 225 -34 74 -81 173 -103 220 -21
47 -49 105 -60 130 -76 167 -111 238 -121 244 -6 4 -11 14 -11 22 0 14 -19 58
-95 219 -44 93 -73 157 -200 435 -106 232 -133 291 -255 545 -78 164 -127 268
-200 425 -62 135 -109 235 -166 358 -20 42 -78 167 -129 277 -50 110 -100 218
-111 239 l-19 39 -93 -2 c-89 -2 -93 -1 -83 17 6 11 7 23 3 27 -4 3 -2 5 4 3
21 -6 317 239 307 255 -3 5 -1 7 5 3 18 -11 42 36 42 81 0 32 -7 50 -28 74
-28 32 -39 34 -233 53 -109 10 -115 28 -20 65 62 23 64 25 92 89 17 36 27 72
24 79 -2 8 -1 12 4 9 5 -3 43 78 84 182 42 103 121 300 177 437 119 293 324
798 422 1040 37 93 66 175 63 183 -2 7 -1 11 3 8 5 -3 41 77 81 177 40 100 82
204 92 230 11 26 17 52 14 57 -3 6 -2 10 3 10 6 0 37 69 70 153 95 239 112
286 106 302 -8 19 -28 19 -47 1z m-2210 -3422 c-3 -3 -12 -4 -19 -1 -8 3 -5 6
6 6 11 1 17 -2 13 -5z m993 -18 c0 -3 -4 -8 -10 -11 -5 -3 -10 -1 -10 4 0 6 5
11 10 11 6 0 10 -2 10 -4z m251 -1193 c13 -16 12 -17 -3 -4 -10 7 -18 15 -18
17 0 8 8 3 21 -13z m-424 -4665 c-3 -8 -6 -5 -6 6 -1 11 2 17 5 13 3 -3 4 -12
1 -19z"/>
<path d="M2389 7412 c-1 -4 0 -15 1 -26 1 -11 -3 -15 -9 -12 -6 4 -11 14 -11
23 0 9 -3 14 -6 11 -3 -4 11 -62 32 -130 95 -313 177 -573 183 -578 3 -3 6 -9
6 -15 0 -5 4 -28 9 -50 7 -34 10 -37 17 -20 7 16 8 14 5 -10 -6 -42 34 -165
53 -165 12 0 13 -2 3 -8 -9 -6 -10 -16 -3 -38 6 -16 22 -69 37 -118 17 -60 29
-84 34 -75 5 7 12 10 16 6 4 -3 2 -13 -5 -21 -13 -16 -4 -69 10 -60 5 3 6 -2
3 -10 -3 -8 5 -46 17 -85 18 -56 27 -71 43 -72 18 -1 19 -2 3 -6 -10 -3 -17
-10 -14 -16 2 -7 12 -40 22 -74 10 -35 23 -63 28 -63 5 0 7 -7 3 -15 -3 -9 3
-39 13 -68 11 -28 27 -81 37 -117 10 -36 21 -67 25 -70 5 -3 11 -22 14 -42 8
-49 42 -140 56 -149 8 -5 8 -8 0 -10 -14 -5 5 -69 20 -69 5 0 8 -8 7 -17 -2
-26 13 -83 23 -83 4 0 8 -8 8 -17 0 -10 5 -40 11 -66 10 -42 14 -46 28 -35 14
12 14 11 1 -11 -11 -18 -11 -25 -1 -28 6 -3 10 -8 8 -12 -5 -7 49 -184 62
-205 3 -6 7 -17 7 -26 1 -8 16 -58 34 -111 l32 -96 76 -6 c42 -3 115 -3 161 0
l85 6 18 43 c11 23 16 50 13 61 -4 12 -3 14 3 6 6 -8 22 25 47 100 104 302
188 551 192 565 2 10 49 150 104 312 112 328 116 341 102 322 -7 -11 -10 -11
-15 2 -4 9 -3 15 1 15 22 -4 30 5 41 41 7 22 9 46 5 52 -4 6 -3 8 3 5 14 -9
47 100 46 148 -1 30 0 34 6 16 6 -23 7 -22 18 13 6 21 9 45 6 54 -4 10 -2 13
5 8 8 -5 10 3 7 26 -4 21 -2 26 3 15 5 -13 16 9 40 83 18 55 30 106 26 112 -4
6 -3 8 3 5 6 -4 19 23 32 66 12 39 26 82 31 94 5 13 7 30 4 38 -4 8 -2 15 3
15 6 0 17 19 26 42 10 25 20 38 26 33 5 -6 36 -94 71 -197 34 -103 66 -190 71
-193 5 -4 4 6 -1 21 -6 15 -9 29 -6 31 2 3 7 -6 12 -19 4 -12 14 -29 23 -36 9
-8 11 -11 6 -8 -38 18 -29 -22 71 -326 82 -247 108 -316 120 -311 7 3 14 1 14
-5 0 -6 -4 -12 -10 -14 -5 -2 -3 -25 7 -57 15 -53 16 -54 29 -30 7 13 13 18
14 11 0 -7 -5 -22 -11 -33 -8 -15 -6 -33 7 -71 14 -45 18 -49 29 -35 15 21 21
21 28 3 4 -11 1 -13 -10 -9 -12 5 -14 1 -8 -18 5 -18 4 -21 -4 -9 -16 22 -13
0 5 -55 16 -44 18 -47 30 -30 17 22 18 12 3 -16 -8 -15 -6 -33 6 -70 9 -27 21
-49 26 -49 6 0 8 -4 5 -9 -10 -15 24 -112 36 -105 8 5 9 1 5 -11 -8 -20 22
-127 34 -120 4 3 10 -2 13 -11 3 -8 2 -12 -4 -9 -15 9 -12 -8 6 -33 8 -12 20
-20 25 -17 5 4 9 0 9 -9 0 -8 3 -21 6 -30 3 -9 1 -16 -5 -16 -6 0 -12 10 -12
23 -1 12 -3 15 -5 7 -2 -8 5 -37 15 -65 11 -27 20 -44 21 -37 0 13 30 17 30 3
0 -5 -7 -14 -15 -21 -18 -15 -19 -30 -2 -30 8 0 13 -13 13 -32 1 -48 65 -223
76 -206 5 9 7 5 6 -12 -3 -25 -2 -25 100 -34 59 -5 128 -5 164 0 l61 9 29 85
c15 47 26 92 23 100 -4 8 -3 11 1 7 5 -4 15 16 24 45 15 45 15 55 3 65 -10 8
-11 13 -3 18 7 4 9 16 6 28 -4 15 -2 17 7 8 18 -18 23 -14 36 30 7 23 15 48
18 57 5 11 3 13 -8 7 -10 -6 -9 -3 2 11 17 20 62 144 55 152 -3 2 -11 -9 -20
-25 -17 -32 -21 -26 -6 11 5 14 15 26 22 26 8 0 31 56 57 141 36 117 41 143
30 151 -11 8 -11 9 2 5 12 -4 26 29 67 159 29 91 50 170 46 177 -4 7 -3 8 1 4
10 -8 57 132 59 175 0 14 4 24 7 22 12 -7 28 72 23 108 -4 20 -2 44 4 54 8 15
9 9 5 -23 -3 -24 -3 -43 0 -43 6 0 60 170 60 190 0 8 4 20 8 26 5 6 21 49 34
95 38 127 38 126 26 109 -9 -12 -11 -11 -11 7 0 24 16 40 22 22 2 -7 10 8 17
32 26 89 93 305 103 331 8 22 7 33 -6 53 -22 33 -20 45 3 18 l18 -22 12 38
c14 48 14 54 -1 45 -8 -5 -9 -2 -5 10 4 10 7 23 7 29 0 8 3 7 9 -2 6 -9 17 13
34 70 69 229 70 230 58 242 -8 8 -62 12 -164 12 -189 0 -200 -6 -236 -115 -13
-40 -24 -85 -25 -101 -1 -16 -7 -31 -13 -34 -7 -2 -13 -12 -13 -22 0 -15 2
-16 10 -3 7 10 10 11 10 2 0 -7 -7 -15 -15 -18 -8 -4 -15 -14 -15 -24 0 -10
-7 -34 -16 -55 -8 -20 -10 -34 -5 -30 6 3 11 -1 11 -10 0 -9 -4 -14 -9 -11
-12 8 -13 5 -86 -239 -99 -331 -163 -541 -199 -660 -89 -287 -207 -696 -256
-882 -22 -82 -44 -113 -47 -65 0 13 -7 28 -13 32 -7 4 -9 13 -6 19 10 16 -3
51 -19 51 -8 0 -19 -8 -24 -17 -6 -10 -11 -13 -11 -6 0 6 5 15 11 19 6 4 9 19
5 36 -3 16 -2 27 3 23 11 -6 -6 60 -22 90 -6 11 -11 27 -12 35 -3 35 -88 269
-96 264 -5 -3 -6 2 -3 10 8 22 -45 178 -58 170 -7 -4 -8 -2 -4 5 12 18 -105
366 -116 349 -7 -9 -8 -6 -5 10 7 31 -23 119 -34 101 -4 -7 -11 -11 -14 -7 -4
3 -1 14 5 25 9 14 2 47 -39 167 -28 83 -54 152 -58 155 -5 3 -9 15 -10 25 -3
41 -118 364 -127 359 -5 -3 -6 -1 -2 6 7 11 -62 228 -90 282 -20 39 -52 55
-127 62 -78 7 -163 -6 -188 -29 -15 -13 -16 -21 -7 -38 10 -18 9 -19 -4 -8
-13 10 -17 10 -22 -3 -3 -9 -1 -25 4 -36 7 -11 7 -19 1 -19 -5 0 -11 5 -13 11
-2 5 -20 -40 -41 -100 -21 -61 -35 -116 -31 -122 5 -8 3 -9 -6 -4 -9 6 -10 2
-5 -15 4 -13 3 -20 -2 -17 -10 7 -49 -91 -40 -100 3 -3 0 -12 -8 -20 -8 -8
-15 -20 -15 -26 0 -7 5 -6 11 3 8 11 9 9 4 -10 -4 -14 -12 -29 -19 -35 -20
-18 -57 -138 -45 -149 7 -8 8 -5 3 9 -7 17 -6 18 8 5 13 -13 14 -16 2 -23 -8
-4 -18 -6 -23 -3 -5 3 -13 -12 -19 -34 -5 -22 -6 -38 -2 -35 5 3 12 1 15 -5 4
-6 3 -10 -2 -9 -23 4 -32 -4 -39 -33 -10 -43 -9 -39 -23 -72 -6 -16 -9 -36 -7
-43 3 -8 2 -12 -3 -9 -5 3 -12 -1 -15 -10 -9 -22 -8 -26 5 -18 7 4 10 2 8 -5
-3 -7 -8 -11 -13 -9 -5 2 -20 -28 -33 -67 -14 -42 -19 -71 -13 -73 5 -2 10
-11 10 -19 0 -12 -3 -13 -14 -4 -11 9 -15 7 -20 -13 -3 -13 -9 -32 -13 -42 -5
-13 -3 -15 7 -9 8 5 11 3 9 -4 -3 -7 -9 -13 -14 -13 -11 -1 -55 -112 -55 -138
0 -13 2 -13 11 0 9 12 10 12 5 -3 -3 -10 -6 -24 -6 -30 0 -7 -4 -6 -10 3 -5 8
-10 13 -10 10 0 -3 -34 -106 -75 -229 -46 -136 -73 -232 -70 -245 4 -13 3 -17
-2 -9 -8 12 -73 -169 -118 -330 -16 -57 -17 -58 -36 -41 -11 9 -17 19 -15 21
4 4 -28 133 -41 163 -3 8 -7 17 -8 20 -1 3 -5 12 -8 20 -4 8 -8 26 -9 40 -2
14 -7 30 -10 36 -4 6 -10 26 -13 45 -9 57 -37 139 -47 139 -5 0 -7 4 -4 8 2 4
0 29 -5 54 -8 37 -14 46 -27 41 -14 -5 -15 -3 -4 8 13 14 17 43 5 36 -5 -3 -8
8 -9 25 -1 16 -6 39 -12 51 -6 12 -23 65 -37 117 -15 52 -34 123 -44 157 -9
34 -20 66 -24 69 -4 4 -7 16 -7 26 0 15 -6 17 -27 13 -16 -3 -22 -2 -15 1 6 3
12 12 12 20 0 9 5 12 10 9 13 -8 14 -13 -14 75 -22 70 -24 73 -34 50 -9 -22
-11 -23 -11 -5 -1 12 4 26 10 32 12 12 -3 75 -25 103 -7 8 -20 35 -29 60 -15
41 -15 43 0 25 14 -18 15 -18 9 -2 -3 10 -6 25 -6 33 0 9 -5 12 -10 9 -7 -4
-8 3 -4 21 5 21 4 25 -6 19 -8 -5 -11 -4 -6 3 4 6 -2 39 -13 74 -26 82 -142
458 -148 480 -3 10 -8 16 -12 14 -4 -3 -7 10 -7 27 0 42 -22 85 -56 110 -25
18 -46 21 -188 24 -88 2 -161 0 -161 -5z m351 -42 c0 -5 -2 -10 -4 -10 -3 0
-8 5 -11 10 -3 6 -1 10 4 10 6 0 11 -4 11 -10z m1515 0 c-28 -12 -37 -12 -30
0 3 6 16 10 28 9 21 0 21 -1 2 -9z m1770 0 c3 -5 1 -10 -4 -10 -6 0 -11 5 -11
10 0 6 2 10 4 10 3 0 8 -4 11 -10z m-41 -125 c-4 -8 -8 -15 -10 -15 -2 0 -4 7
-4 15 0 8 4 15 10 15 5 0 7 -7 4 -15z m-33 -38 c-16 -16 -20 -5 -8 23 9 22 11
23 14 6 3 -10 0 -23 -6 -29z m-1771 -13 c0 -8 -4 -14 -10 -14 -5 0 -10 9 -10
21 0 11 5 17 10 14 6 -3 10 -13 10 -21z m2107 -6 c-3 -8 -6 -5 -6 6 -1 11 2
17 5 13 3 -3 4 -12 1 -19z m-1692 2 c3 -5 1 -10 -4 -10 -6 0 -11 5 -11 10 0 6
2 10 4 10 3 0 8 -4 11 -10z m1662 -12 c-3 -8 -6 -5 -6 6 -1 11 2 17 5 13 3 -3
4 -12 1 -19z m-3789 -28 c-10 -15 -10 -22 0 -32 17 -17 15 -33 -3 -18 -18 15
-19 42 -3 58 18 18 20 15 6 -8z m359 -32 c-3 -8 -6 -5 -6 6 -1 11 2 17 5 13 3
-3 4 -12 1 -19z m1304 -21 c-10 -9 -11 -8 -5 6 3 10 9 15 12 12 3 -3 0 -11 -7
-18z m-1637 -57 c-6 -5 -24 21 -24 34 0 6 6 1 14 -10 8 -10 12 -21 10 -24z
m366 -3 c0 -5 -4 -5 -10 -2 -5 3 -10 14 -10 23 0 15 2 15 10 2 5 -8 10 -19 10
-23z m1282 -9 c-7 -7 -12 -8 -12 -2 0 14 12 26 19 19 2 -3 -1 -11 -7 -17z
m-1622 -27 c0 -9 -20 -37 -20 -29 0 3 -2 13 -5 21 -4 8 0 14 10 14 8 0 15 -3
15 -6z m363 -22 c4 -16 3 -18 -9 -8 -7 6 -11 15 -8 20 8 13 11 11 17 -12z m12
-49 c3 -5 2 -10 -4 -10 -5 0 -13 5 -16 10 -3 6 -2 10 4 10 5 0 13 -4 16 -10z
m3278 -15 c-3 -9 -8 -14 -10 -11 -3 3 -2 9 2 15 9 16 15 13 8 -4z m-3623 -35
c0 -5 -2 -10 -4 -10 -3 0 -8 5 -11 10 -3 6 -1 10 4 10 6 0 11 -4 11 -10z
m3636 -32 c-12 -40 -17 -50 -22 -46 -5 6 13 58 20 58 3 0 4 -6 2 -12z m-1853
-13 c-3 -9 -8 -14 -10 -11 -3 3 -2 9 2 15 9 16 15 13 8 -4z m-292 -32 c-12
-20 -14 -14 -5 12 4 9 9 14 11 11 3 -2 0 -13 -6 -23z m19 -61 c0 -7 -4 -10
-10 -7 -5 3 -10 16 -10 28 0 18 2 19 10 7 5 -8 10 -21 10 -28z m-1465 -2 c-4
-12 -9 -19 -12 -17 -3 3 -2 15 2 27 4 12 9 19 12 17 3 -3 2 -15 -2 -27z m1419
-6 c3 -8 2 -12 -4 -9 -6 3 -10 10 -10 16 0 14 7 11 14 -7z m2115 -63 c-6 -28
-13 -51 -15 -51 -6 0 6 92 13 103 12 19 13 -4 2 -52z m-329 39 c0 -5 -5 -10
-11 -10 -5 0 -7 5 -4 10 3 6 8 10 11 10 2 0 4 -4 4 -10z m-1343 -72 c-3 -7 -5
-2 -5 12 0 14 2 19 5 13 2 -7 2 -19 0 -25z m-185 0 c-7 -7 -12 -8 -12 -2 0 14
12 26 19 19 2 -3 -1 -11 -7 -17z m-282 -8 c0 -5 -2 -10 -4 -10 -3 0 -8 5 -11
10 -3 6 -1 10 4 10 6 0 11 -4 11 -10z m261 -33 c-10 -9 -11 -8 -5 6 3 10 9 15
12 12 3 -3 0 -11 -7 -18z m1840 -4 c-12 -20 -14 -14 -5 12 4 9 9 14 11 11 3
-2 0 -13 -6 -23z m-1591 -17 c0 -8 -4 -18 -10 -21 -5 -3 -10 -4 -10 -1 0 2 -3
11 -6 20 -4 11 -1 16 10 16 9 0 16 -6 16 -14z m1252 -18 c-7 -7 -12 -8 -12 -2
0 14 12 26 19 19 2 -3 -1 -11 -7 -17z m-962 2 c0 -5 -4 -10 -10 -10 -5 0 -10
5 -10 10 0 6 5 10 10 10 6 0 10 -4 10 -10z m932 -105 c-2 -14 -9 -25 -14 -25
-6 0 -7 7 -4 16 3 9 6 22 6 30 0 9 4 13 9 10 4 -3 6 -17 3 -31z m-3045 3 c-3
-8 -6 -5 -6 6 -1 11 2 17 5 13 3 -3 4 -12 1 -19z m2147 13 c3 -5 -1 -11 -9
-14 -9 -4 -12 -1 -8 9 6 16 10 17 17 5z m-647 -33 c-3 -7 -5 -2 -5 12 0 14 2
19 5 13 2 -7 2 -19 0 -25z m1836 -3 c-3 -9 -8 -14 -10 -11 -3 3 -2 9 2 15 9
16 15 13 8 -4z m45 -10 c-3 -3 -9 2 -12 12 -6 14 -5 15 5 6 7 -7 10 -15 7 -18z
m-1860 -11 c-7 -15 -14 -21 -16 -15 -2 7 2 18 8 26 18 22 21 18 8 -11z m-1487
-77 c-10 -9 -11 -8 -5 6 3 10 9 15 12 12 3 -3 0 -11 -7 -18z m3319 13 c0 -5
-5 -10 -11 -10 -5 0 -7 5 -4 10 3 6 8 10 11 10 2 0 4 -4 4 -10z m-357 -81 c-8
-28 -12 -23 -11 12 1 17 4 25 8 18 4 -6 5 -20 3 -30z m-2616 -1 c-3 -8 -6 -5
-6 6 -1 11 2 17 5 13 3 -3 4 -12 1 -19z m1543 -13 c0 -8 -2 -15 -4 -15 -2 0
-6 7 -10 15 -3 8 -1 15 4 15 6 0 10 -7 10 -15z m293 0 c-3 -9 -8 -14 -10 -11
-3 3 -2 9 2 15 9 16 15 13 8 -4z m1087 -39 c0 -3 -4 -8 -10 -11 -5 -3 -10 -1
-10 4 0 6 5 11 10 11 6 0 10 -2 10 -4z m-1083 -38 c-3 -8 -6 -5 -6 6 -1 11 2
17 5 13 3 -3 4 -12 1 -19z m-790 -20 c-3 -8 -6 -5 -6 6 -1 11 2 17 5 13 3 -3
4 -12 1 -19z m521 -9 c-3 -8 -7 -3 -11 10 -4 17 -3 21 5 13 5 -5 8 -16 6 -23z
m999 -11 c-3 -7 -5 -2 -5 12 0 14 2 19 5 13 2 -7 2 -19 0 -25z m-2496 -25
c-12 -20 -14 -14 -5 12 4 9 9 14 11 11 3 -2 0 -13 -6 -23z m693 19 c3 -5 -1
-9 -9 -9 -8 0 -12 4 -9 9 3 4 7 8 9 8 2 0 6 -4 9 -8z m273 -24 c-3 -8 -6 -5
-6 6 -1 11 2 17 5 13 3 -3 4 -12 1 -19z m-1308 -25 c0 -25 -1 -25 -8 -8 -5 11
-7 23 -4 28 8 14 13 7 12 -20z m2180 -16 c1 -5 -3 -5 -9 -2 -5 3 -10 16 -9 28
0 21 1 21 9 2 5 -11 9 -24 9 -28z m-1178 10 c-10 -9 -11 -8 -5 6 3 10 9 15 12
12 3 -3 0 -11 -7 -18z m2143 -23 c3 -8 2 -12 -4 -9 -6 3 -10 10 -10 16 0 14 7
11 14 -7z m-3124 -14 c0 -5 -5 -10 -11 -10 -5 0 -7 5 -4 10 3 6 8 10 11 10 2
0 4 -4 4 -10z m2784 -5 c-4 -8 -8 -15 -10 -15 -2 0 -4 7 -4 15 0 8 4 15 10 15
5 0 7 -7 4 -15z m-2414 -43 c0 -15 -2 -15 -10 -2 -13 20 -13 33 0 25 6 -3 10
-14 10 -23z m1520 -57 c0 -5 -5 -3 -10 5 -5 8 -10 20 -10 25 0 6 5 3 10 -5 5
-8 10 -19 10 -25z m297 3 c-3 -7 -5 -2 -5 12 0 14 2 19 5 13 2 -7 2 -19 0 -25z
m-1250 -10 c-3 -8 -6 -5 -6 6 -1 11 2 17 5 13 3 -3 4 -12 1 -19z m282 -20 c0
-7 -4 -22 -8 -32 -7 -19 -8 -19 -13 2 -4 14 -2 20 5 15 6 -4 8 0 4 10 -3 10
-2 17 3 17 6 0 10 -6 9 -12z m1518 -30 c-3 -7 -5 -2 -5 12 0 14 2 19 5 13 2
-7 2 -19 0 -25z m334 5 c-12 -20 -14 -14 -5 12 4 9 9 14 11 11 3 -2 0 -13 -6
-23z m-2170 -46 c-10 -9 -11 -8 -5 6 3 10 9 15 12 12 3 -3 0 -11 -7 -18z
m1346 -29 c-3 -8 -6 -5 -6 6 -1 11 2 17 5 13 3 -3 4 -12 1 -19z m790 -40 c-3
-8 -6 -5 -6 6 -1 11 2 17 5 13 3 -3 4 -12 1 -19z m-773 -4 c10 -25 -1 -29 -14
-5 -6 12 -7 21 -1 21 5 0 12 -7 15 -16z m-1108 -30 c-4 -9 -9 -15 -11 -12 -3
3 -3 13 1 22 4 9 9 15 11 12 3 -3 3 -13 -1 -22z m1859 -21 c-4 -10 -11 -31
-15 -48 l-8 -30 -1 28 c-1 15 5 36 11 47 16 25 23 26 13 3z m-2900 -32 c0 -22
-3 -37 -7 -33 -13 14 -13 72 0 72 4 0 8 -18 7 -39z m1029 5 c-3 -9 -10 -13
-16 -10 -5 3 -4 12 3 20 15 18 22 13 13 -10z m-689 4 c3 -5 1 -10 -4 -10 -6 0
-11 5 -11 10 0 6 2 10 4 10 3 0 8 -4 11 -10z m405 -14 c0 -3 -4 -8 -10 -11 -5
-3 -10 -1 -10 4 0 6 5 11 10 11 6 0 10 -2 10 -4z m1833 -36 c-3 -12 -8 -19
-11 -16 -5 6 5 36 12 36 2 0 2 -9 -1 -20z m-1573 -27 c-11 -17 -11 -17 -6 0 3
10 6 24 7 30 0 9 2 9 5 0 3 -7 0 -20 -6 -30z m1190 17 c0 -5 -5 -10 -11 -10
-5 0 -7 5 -4 10 3 6 8 10 11 10 2 0 4 -4 4 -10z m341 -33 c-8 -8 -11 -7 -11 4
0 9 3 19 7 23 4 4 9 2 11 -4 3 -7 -1 -17 -7 -23z m-1821 -22 c0 -5 -5 -3 -10
5 -5 8 -10 20 -10 25 0 6 5 3 10 -5 5 -8 10 -19 10 -25z m1488 23 c-1 -7 6
-30 16 -51 10 -21 16 -41 12 -44 -3 -3 -6 1 -6 10 0 10 -4 17 -10 17 -5 0 -10
9 -10 20 0 11 -7 23 -15 26 -11 5 -12 9 -2 20 15 17 19 17 15 2z m-2173 -19
c-10 -15 -25 -10 -19 6 4 8 10 12 15 9 5 -3 7 -10 4 -15z m339 5 c3 -8 2 -12
-4 -9 -6 3 -10 10 -10 16 0 14 7 11 14 -7z m2143 -56 c-3 -8 -6 -5 -6 6 -1 11
2 17 5 13 3 -3 4 -12 1 -19z m330 -10 c-3 -7 -5 -2 -5 12 0 14 2 19 5 13 2 -7
2 -19 0 -25z m-1910 -55 c-3 -10 -5 -2 -5 17 0 19 2 27 5 18 2 -10 2 -26 0
-35z m1315 -32 c-4 -10 -8 -8 -13 7 -5 12 -5 30 -2 40 6 14 8 13 13 -8 4 -14
4 -31 2 -39z m-1578 33 c3 -8 2 -12 -4 -9 -6 3 -10 10 -10 16 0 14 7 11 14 -7z
m1840 1 c-4 -8 -11 -15 -16 -15 -6 0 -5 6 2 15 7 8 14 15 16 15 2 0 1 -7 -2
-15z m-2097 -47 c-3 -8 -6 -5 -6 6 -1 11 2 17 5 13 3 -3 4 -12 1 -19z m229
-19 c-9 -19 -15 -26 -16 -16 0 17 21 59 27 53 2 -2 -3 -18 -11 -37z m301 19
c-3 -8 -6 -5 -6 6 -1 11 2 17 5 13 3 -3 4 -12 1 -19z m1867 -13 c-4 -8 -8 -15
-10 -15 -2 0 -4 7 -4 15 0 8 4 15 10 15 5 0 7 -7 4 -15z m-1881 -25 c-3 -11
-7 -20 -9 -20 -2 0 -4 9 -4 20 0 11 4 20 9 20 5 0 7 -9 4 -20z m1367 -55 c0
-5 -5 -3 -10 5 -5 8 -10 20 -10 25 0 6 5 3 10 -5 5 -8 10 -19 10 -25z m-2183
3 c-3 -8 -6 -5 -6 6 -1 11 2 17 5 13 3 -3 4 -12 1 -19z m340 -45 c-3 -10 -5
-2 -5 17 0 19 2 27 5 18 2 -10 2 -26 0 -35z m2319 1 c-4 -9 -9 -15 -11 -12 -3
3 -3 13 1 22 4 9 9 15 11 12 3 -3 3 -13 -1 -22z m-759 -6 c-3 -8 -6 -5 -6 6
-1 11 2 17 5 13 3 -3 4 -12 1 -19z m-1130 -20 c-3 -8 -6 -5 -6 6 -1 11 2 17 5
13 3 -3 4 -12 1 -19z m1547 -53 c3 -8 1 -15 -4 -15 -6 0 -10 7 -10 15 0 8 2
15 4 15 2 0 6 -7 10 -15z m-2277 -27 c-3 -8 -6 -5 -6 6 -1 11 2 17 5 13 3 -3
4 -12 1 -19z m336 -19 c-8 -28 -12 -23 -11 12 1 17 4 25 8 18 4 -6 5 -20 3
-30z m377 31 c0 -5 -5 -10 -11 -10 -5 0 -7 5 -4 10 3 6 8 10 11 10 2 0 4 -4 4
-10z m-276 -36 c3 -8 2 -12 -4 -9 -6 3 -10 10 -10 16 0 14 7 11 14 -7z m257
-11 c-8 -15 -10 -15 -11 -2 0 17 10 32 18 25 2 -3 -1 -13 -7 -23z m-289 -5
c-7 -7 -12 -8 -12 -2 0 14 12 26 19 19 2 -3 -1 -11 -7 -17z m1541 -68 c-3 -11
-9 -20 -14 -20 -11 0 -11 3 -3 24 9 23 23 20 17 -4z m-1288 -30 c-4 -12 -9
-19 -12 -17 -3 3 -2 15 2 27 4 12 9 19 12 17 3 -3 2 -15 -2 -27z m1878 5 c-3
-9 -8 -14 -10 -11 -3 3 -2 9 2 15 9 16 15 13 8 -4z m-1912 -111 c-11 -27 -20
-43 -20 -37 -1 17 30 95 36 90 2 -3 -5 -26 -16 -53z m-525 -61 c-3 -4 -6 -1
-6 6 0 7 -4 9 -10 6 -11 -7 -14 8 -3 19 4 3 11 -1 16 -9 5 -9 6 -19 3 -22z
m479 -69 c-8 -16 -15 -24 -15 -17 0 18 24 67 27 56 2 -5 -3 -23 -12 -39z
m-458 -6 c-3 -8 -6 -5 -6 6 -1 11 2 17 5 13 3 -3 4 -12 1 -19z m2333 -15 c-11
-17 -11 -17 -6 0 3 10 6 24 7 30 0 9 2 9 5 0 3 -7 0 -20 -6 -30z m-432 -9 c-3
-3 1 -26 8 -51 8 -26 11 -43 7 -39 -21 21 -32 96 -15 96 3 0 3 -2 0 -6z
m-1871 -106 c-3 -8 -6 -5 -6 6 -1 11 2 17 5 13 3 -3 4 -12 1 -19z m2264 -32
c-6 -14 -15 -26 -21 -26 -7 0 -4 13 6 30 21 35 29 33 15 -4z m-1911 -39 c0
-15 -20 -37 -34 -37 -5 0 -2 6 9 13 10 8 15 19 11 25 -4 7 -2 12 3 12 6 0 11
-6 11 -13z m-305 -27 c3 -5 1 -10 -4 -10 -6 0 -11 5 -11 10 0 6 2 10 4 10 3 0
8 -4 11 -10z m78 -7 c-7 -2 -19 -2 -25 0 -7 3 -2 5 12 5 14 0 19 -2 13 -5z
m1914 1 c-3 -3 -12 -4 -19 -1 -8 3 -5 6 6 6 11 1 17 -2 13 -5z m76 -1 c-13 -2
-33 -2 -45 0 -13 2 -3 4 22 4 25 0 35 -2 23 -4z m64 1 c-3 -3 -12 -4 -19 -1
-8 3 -5 6 6 6 11 1 17 -2 13 -5z"/>
<path d="M6822 7412 l-52 -3 2 -1424 c2 -783 6 -1426 9 -1429 8 -8 1559 -8
1664 0 77 6 84 9 88 30 2 13 0 27 -5 32 -5 5 -5 20 1 35 6 16 7 27 1 27 -5 0
-6 22 -3 51 4 38 2 53 -8 60 -10 6 -10 9 -1 9 6 0 12 11 12 25 l0 25 -612 1
c-337 1 -644 4 -683 8 l-70 6 -5 500 c-4 392 -2 503 8 513 6 7 12 9 12 3 0 -5
-4 -13 -10 -16 -18 -11 -11 -23 10 -18 11 3 17 9 14 14 -3 5 -1 9 5 9 5 0 13
-4 16 -10 3 -5 38 -10 76 -10 44 0 68 4 64 10 -3 6 -1 10 4 10 6 0 11 -4 11
-8 0 -5 66 -8 148 -7 81 1 283 3 450 4 l302 1 0 140 c0 108 -3 140 -13 140 -7
0 -17 -4 -23 -10 -15 -15 -185 -24 -214 -11 -22 10 -19 11 23 8 26 -1 47 1 47
5 0 4 -178 9 -395 10 -217 2 -395 -1 -395 -5 0 -4 -8 -3 -18 2 -10 6 -44 9
-75 9 -31 -1 -60 1 -64 5 -3 4 -1 7 5 7 9 0 12 70 12 266 0 146 -4 263 -8 260
-4 -2 -9 5 -9 17 -2 17 0 19 7 7 6 -10 10 59 12 190 l3 205 85 3 c52 2 87 8
92 15 6 9 8 9 8 -1 0 -11 104 -13 584 -10 321 2 587 6 591 9 6 7 9 278 3 284
-4 5 -1635 11 -1706 7z m398 -256 c0 -3 -4 -8 -10 -11 -5 -3 -10 -1 -10 4 0 6
5 11 10 11 6 0 10 -2 10 -4z m1295 -16 c-3 -5 -14 -10 -23 -9 -14 0 -13 2 3 9
27 11 27 11 20 0z m-1108 -16 c-3 -3 -12 -4 -19 -1 -8 3 -5 6 6 6 11 1 17 -2
13 -5z m50 0 c-3 -3 -12 -4 -19 -1 -8 3 -5 6 6 6 11 1 17 -2 13 -5z m76 -1
c-7 -2 -19 -2 -25 0 -7 3 -2 5 12 5 14 0 19 -2 13 -5z m-383 -7 c0 -11 -19
-15 -25 -6 -3 5 1 10 9 10 9 0 16 -2 16 -4z m0 -118 c0 -64 -5 -60 -13 10 -4
32 -2 50 3 47 6 -4 10 -29 10 -57z m-3 -90 c-3 -8 -6 -5 -6 6 -1 11 2 17 5 13
3 -3 4 -12 1 -19z m-2 -127 c3 -5 1 -12 -5 -16 -5 -3 -10 1 -10 9 0 18 6 21
15 7z m2 -303 c-3 -7 -5 -2 -5 12 0 14 2 19 5 13 2 -7 2 -19 0 -25z m0 -60
c-3 -8 -6 -5 -6 6 -1 11 2 17 5 13 3 -3 4 -12 1 -19z m-4 -68 c-7 -28 -13 -25
-13 6 0 14 4 23 9 20 5 -3 7 -15 4 -26z m4 -122 c-3 -7 -5 -2 -5 12 0 14 2 19
5 13 2 -7 2 -19 0 -25z m356 -105 c-13 -2 -33 -2 -45 0 -13 2 -3 4 22 4 25 0
35 -2 23 -4z m74 1 c-3 -3 -12 -4 -19 -1 -8 3 -5 6 6 6 11 1 17 -2 13 -5z
m116 -1 c-13 -2 -33 -2 -45 0 -13 2 -3 4 22 4 25 0 35 -2 23 -4z m155 0 c-21
-2 -57 -2 -80 0 -24 2 -7 4 37 4 44 0 63 -2 43 -4z m367 -43 c-3 -5 -12 -10
-18 -10 -7 0 -6 4 3 10 19 12 23 12 15 0z m-168 -196 c-3 -3 -12 -4 -19 -1 -8
3 -5 6 6 6 11 1 17 -2 13 -5z m-900 -96 c-3 -7 -5 -2 -5 12 0 14 2 19 5 13 2
-7 2 -19 0 -25z m3 -170 c0 -36 -4 -35 -14 5 -4 16 -2 27 4 27 5 0 10 -14 10
-32z m-7 -148 c-7 -28 -13 -25 -13 6 0 14 4 23 9 20 5 -3 7 -15 4 -26z m4
-342 c-2 -24 -4 -5 -4 42 0 47 2 66 4 43 2 -24 2 -62 0 -85z m0 -110 c-3 -8
-6 -5 -6 6 -1 11 2 17 5 13 3 -3 4 -12 1 -19z m6 -148 c3 -11 1 -20 -4 -20 -5
0 -9 2 -9 4 0 2 -3 11 -6 20 -3 9 -2 16 4 16 5 0 12 -9 15 -20z m1352 -298
c-3 -3 -11 0 -18 7 -9 10 -8 11 6 5 10 -3 15 -9 12 -12z m-1238 -8 c-3 -3 -12
-4 -19 -1 -8 3 -5 6 6 6 11 1 17 -2 13 -5z m361 -1 c-10 -2 -26 -2 -35 0 -10
3 -2 5 17 5 19 0 27 -2 18 -5z m305 0 c-7 -2 -19 -2 -25 0 -7 3 -2 5 12 5 14
0 19 -2 13 -5z m210 0 c-13 -2 -33 -2 -45 0 -13 2 -3 4 22 4 25 0 35 -2 23 -4z"/>
<path d="M8133 6133 c15 -2 39 -2 55 0 15 2 2 4 -28 4 -30 0 -43 -2 -27 -4z"/>
<path d="M5241 5274 c0 -11 3 -14 6 -6 3 7 2 16 -1 19 -3 4 -6 -2 -5 -13z"/>
<path d="M3128 3813 l-398 -3 0 -1509 0 -1509 83 -5 c45 -3 341 -4 657 -2 635
3 680 7 895 72 61 19 61 19 46 36 -9 12 -6 13 15 9 19 -3 23 -7 12 -14 -9 -6
-5 -7 12 -2 14 4 28 11 31 16 3 5 8 9 10 7 10 -6 77 26 72 34 -3 6 -1 7 5 3
14 -9 55 12 47 24 -3 4 3 6 13 4 15 -5 137 72 219 138 63 50 194 191 189 204
-3 7 4 23 16 36 l20 23 -17 -29 c-26 -43 0 -21 36 30 58 84 98 164 92 181 -4
10 -2 14 4 10 6 -4 24 24 43 66 46 101 45 98 25 91 -11 -5 -9 1 8 18 26 26 60
146 61 218 1 19 4 37 8 40 7 6 13 65 23 240 7 118 -6 292 -22 297 -6 2 -14 -4
-17 -14 -3 -11 -4 -8 -3 7 2 14 8 24 15 22 10 -2 12 9 7 45 -4 27 -9 55 -12
63 -3 8 -7 30 -9 48 -2 18 -10 40 -19 49 -9 9 -12 19 -7 22 5 3 -2 40 -18 86
-39 115 -48 135 -60 135 -6 0 -8 5 -5 10 7 11 -64 145 -72 137 -2 -3 1 -15 7
-27 7 -13 8 -26 3 -31 -5 -5 -9 -1 -11 9 -1 9 -3 31 -5 49 -5 40 -39 90 -140
204 -51 57 -85 88 -94 85 -8 -3 -12 -2 -8 3 7 13 -102 104 -115 96 -5 -3 -10
0 -10 7 0 19 -66 59 -87 52 -14 -5 -15 -4 -4 4 31 22 -324 170 -378 157 -18
-4 -22 -3 -12 4 15 10 -31 22 -150 40 -82 12 -498 18 -1001 14z m820 -20 c-15
-2 -42 -2 -60 0 -18 2 -6 4 27 4 33 0 48 -2 33 -4z m272 -23 l25 -8 -27 -1
c-14 -1 -32 -3 -40 -4 -7 -2 -10 -2 -5 0 4 3 5 9 1 14 -6 11 11 10 46 -1z
m230 -70 c8 -5 11 -10 5 -10 -5 0 -17 5 -25 10 -8 5 -10 10 -5 10 6 0 17 -5
25 -10z m90 -40 c0 -5 -2 -10 -4 -10 -3 0 -8 5 -11 10 -3 6 -1 10 4 10 6 0 11
-4 11 -10z m-1763 -42 c-3 -7 -5 -2 -5 12 0 14 2 19 5 13 2 -7 2 -19 0 -25z
m1868 -19 c-4 -5 -12 -9 -18 -8 -9 0 -8 2 1 6 6 2 9 10 6 15 -4 7 -2 8 5 4 6
-4 9 -12 6 -17z m-1898 -91 c-2 -13 -4 -3 -4 22 0 25 2 35 4 23 2 -13 2 -33 0
-45z m1977 47 c-4 -8 -10 -15 -15 -15 -5 0 -9 7 -9 15 0 8 7 15 15 15 9 0 12
-6 9 -15z m-1510 -43 c3 -5 -1 -9 -9 -9 -8 0 -15 4 -15 9 0 4 4 8 9 8 6 0 12
-4 15 -8z m309 1 c-46 -2 -120 -2 -165 0 -46 1 -9 3 82 3 91 0 128 -2 83 -3z
m145 0 c-10 -2 -26 -2 -35 0 -10 3 -2 5 17 5 19 0 27 -2 18 -5z m85 0 c-7 -2
-19 -2 -25 0 -7 3 -2 5 12 5 14 0 19 -2 13 -5z m1029 0 c-6 -3 -9 -9 -6 -15 4
-6 -2 -5 -15 1 -28 15 -27 19 7 18 15 0 21 -2 14 -4z m-817 -26 c245 -14 477
-110 633 -261 43 -42 54 -48 62 -36 7 10 10 11 10 3 0 -7 6 -13 14 -13 8 0 17
-7 20 -16 6 -15 4 -15 -19 0 -35 23 -31 8 11 -39 19 -22 45 -57 56 -77 12 -20
26 -34 31 -31 6 3 7 1 3 -5 -4 -6 0 -25 9 -42 13 -26 19 -29 31 -19 11 9 14 8
14 -5 0 -9 -4 -16 -10 -16 -5 0 -10 -4 -10 -10 0 -5 7 -10 16 -10 8 0 12 -5 9
-11 -10 -15 4 -61 15 -54 5 3 7 0 4 -8 -3 -8 1 -30 9 -48 8 -19 19 -59 26 -89
7 -30 16 -64 21 -75 12 -31 32 -251 29 -340 -3 -137 -43 -392 -74 -475 -13
-34 -14 -50 -6 -70 10 -22 10 -23 -3 -7 -17 22 -30 7 -21 -26 4 -14 3 -18 -3
-9 -6 9 -20 -10 -47 -65 -21 -43 -51 -94 -67 -114 -19 -24 -27 -42 -22 -55 4
-13 3 -15 -3 -7 -7 10 -17 4 -42 -21 -17 -18 -31 -39 -29 -47 2 -8 -3 -13 -10
-11 -7 1 -42 -23 -79 -53 -62 -51 -232 -145 -264 -145 -11 0 -11 -2 1 -11 12
-9 12 -10 -3 -5 -23 7 -67 -3 -67 -15 0 -5 8 -9 18 -10 11 0 12 -2 4 -6 -7 -3
-19 0 -26 6 -10 8 -30 7 -77 -4 -35 -8 -83 -15 -107 -15 -30 0 -41 -3 -36 -12
5 -7 2 -9 -9 -5 -9 3 -204 7 -434 8 l-418 1 0 1174 c0 646 3 1174 8 1174 4 0
7 7 7 15 0 8 8 16 18 16 69 6 688 13 692 8 3 -3 55 -9 115 -12z m300 -6 c3 -6
-4 -15 -15 -21 -15 -8 -27 -7 -47 4 -16 8 -24 15 -20 16 5 0 17 -4 27 -10 21
-11 53 -3 44 11 -3 5 -3 9 0 9 3 0 7 -4 11 -9z m569 -21 c-6 -6 -10 -3 -10 10
0 13 4 16 10 10 7 -7 7 -13 0 -20z m-2087 -87 c-3 -10 -5 -4 -5 12 0 17 2 24
5 18 2 -7 2 -21 0 -30z m1658 17 c3 -6 -1 -7 -9 -4 -18 7 -21 14 -7 14 6 0 13
-4 16 -10z m69 -27 c4 -9 4 -18 1 -21 -3 -3 -5 0 -5 6 0 7 -6 12 -13 12 -8 0
-14 6 -14 14 0 18 24 10 31 -11z m436 23 c0 -2 -7 -7 -16 -10 -8 -3 -12 -2 -9
4 6 10 25 14 25 6z m45 -14 c-3 -3 -11 0 -18 7 -9 10 -8 11 6 5 10 -3 15 -9
12 -12z m-58 -34 c-3 -8 -6 -5 -6 6 -1 11 2 17 5 13 3 -3 4 -12 1 -19z m43 2
c-8 -5 -19 -10 -25 -10 -5 0 -3 5 5 10 8 5 20 10 25 10 6 0 3 -5 -5 -10z m37
-12 c-3 -8 -6 -5 -6 6 -1 11 2 17 5 13 3 -3 4 -12 1 -19z m-447 -19 c0 -6 -4
-7 -10 -4 -5 3 -10 11 -10 16 0 6 5 7 10 4 6 -3 10 -11 10 -16z m490 -21 c0
-6 -6 -5 -15 2 -8 7 -15 14 -15 16 0 2 7 1 15 -2 8 -4 15 -11 15 -16z m-416
-21 c22 -18 26 -26 16 -32 -8 -5 -11 -4 -6 3 3 6 -2 13 -13 17 -21 6 -49 35
-35 35 5 0 22 -11 38 -23z m391 13 c3 -6 -1 -7 -9 -4 -18 7 -21 14 -7 14 6 0
13 -4 16 -10z m86 -67 c13 -16 12 -17 -3 -4 -17 13 -22 21 -14 21 2 0 10 -8
17 -17z m-7 -29 c3 -8 2 -12 -4 -9 -6 3 -10 10 -10 16 0 14 7 11 14 -7z m36
-4 c0 -5 -2 -10 -4 -10 -3 0 -8 5 -11 10 -3 6 -1 10 4 10 6 0 11 -4 11 -10z
m-312 -115 c-3 -3 -9 2 -12 12 -6 14 -5 15 5 6 7 -7 10 -15 7 -18z m375 6 c3
-14 1 -18 -9 -14 -15 6 -18 16 -7 26 9 10 10 9 16 -12z m-393 -5 c0 -3 -4 -8
-10 -11 -5 -3 -10 -1 -10 4 0 6 5 11 10 11 6 0 10 -2 10 -4z m415 -36 c3 -5 1
-10 -4 -10 -6 0 -11 5 -11 10 0 6 2 10 4 10 3 0 8 -4 11 -10z m-343 -43 c-2
-10 -5 -16 -6 -15 -1 2 -7 10 -13 18 -10 13 -8 16 6 16 13 0 17 -6 13 -19z
m-35 -19 c-3 -8 -6 -5 -6 6 -1 11 2 17 5 13 3 -3 4 -12 1 -19z m46 -13 c-3 -9
-8 -14 -10 -11 -3 3 -2 9 2 15 9 16 15 13 8 -4z m370 -42 c-4 -11 -3 -14 5 -9
16 10 15 -9 -1 -22 -9 -8 -12 -3 -13 23 0 19 3 32 7 29 5 -2 5 -12 2 -21z m27
-51 c0 -5 -7 -9 -15 -9 -8 0 -12 4 -9 9 3 4 9 8 15 8 5 0 9 -4 9 -8z m37 -204
c-3 -7 -5 -2 -5 12 0 14 2 19 5 13 2 -7 2 -19 0 -25z m-347 -25 c0 -13 -3 -13
-15 -3 -8 7 -12 16 -9 21 8 13 24 1 24 -18z m361 -26 c-10 -9 -11 -8 -5 6 3
10 9 15 12 12 3 -3 0 -11 -7 -18z m-364 -49 c-3 -7 -5 -2 -5 12 0 14 2 19 5
13 2 -7 2 -19 0 -25z m390 -50 c-3 -8 -6 -5 -6 6 -1 11 2 17 5 13 3 -3 4 -12
1 -19z m0 -130 c-3 -8 -6 -5 -6 6 -1 11 2 17 5 13 3 -3 4 -12 1 -19z m-10
-240 c-3 -8 -6 -5 -6 6 -1 11 2 17 5 13 3 -3 4 -12 1 -19z m3 -94 c0 -8 -5
-12 -10 -9 -6 4 -8 11 -5 16 9 14 15 11 15 -7z m-383 -48 c-1 -20 -6 -31 -11
-26 -8 8 -1 60 9 60 3 0 4 -16 2 -34z m-2200 -109 c-2 -23 -3 -1 -3 48 0 50 1
68 3 42 2 -26 2 -67 0 -90z m2570 61 c-3 -7 -5 -2 -5 12 0 14 2 19 5 13 2 -7
2 -19 0 -25z m-380 -90 c-3 -8 -6 -5 -6 6 -1 11 2 17 5 13 3 -3 4 -12 1 -19z
m350 -50 c-3 -8 -6 -5 -6 6 -1 11 2 17 5 13 3 -3 4 -12 1 -19z m-2170 -50 c-2
-13 -4 -5 -4 17 -1 22 1 32 4 23 2 -10 2 -28 0 -40z m-370 -431 c-1 -73 -3
-10 -3 138 0 149 2 208 3 132 2 -76 2 -198 0 -270z m2476 340 c3 -8 -1 -14 -8
-14 -7 0 -11 6 -8 14 3 7 6 13 8 13 2 0 5 -6 8 -13z m-401 -49 c-6 -6 -15 -8
-19 -4 -4 4 -1 11 7 16 19 12 27 3 12 -12z m378 -8 c0 -5 -2 -10 -4 -10 -3 0
-8 5 -11 10 -3 6 -1 10 4 10 6 0 11 -4 11 -10z m-38 -58 c-3 -10 -1 -13 6 -8
7 4 12 2 12 -4 0 -7 -6 -10 -14 -7 -8 3 -17 1 -19 -6 -2 -7 -4 0 -3 14 0 14 6
26 13 26 6 0 9 -7 5 -15z m-392 -28 c-18 -21 -24 -10 -9 18 8 14 14 18 17 10
2 -7 -2 -19 -8 -28z m-30 -34 c0 -5 -5 -10 -11 -10 -5 0 -7 5 -4 10 3 6 8 10
11 10 2 0 4 -4 4 -10z m410 3 c0 -5 -5 -15 -10 -23 -7 -12 -9 -10 -7 8 1 19
17 33 17 15z m-50 -87 c0 -2 -7 -9 -15 -16 -13 -11 -14 -10 -9 4 5 14 24 23
24 12z m-110 -100 c0 -2 -8 -10 -17 -17 -16 -13 -17 -12 -4 4 13 16 21 21 21
13z m-435 -26 c-3 -5 -11 -10 -16 -10 -6 0 -7 5 -4 10 3 6 11 10 16 10 6 0 7
-4 4 -10z m395 -56 c0 -2 -9 0 -20 6 -11 6 -20 13 -20 16 0 2 9 0 20 -6 11 -6
20 -13 20 -16z m-520 -4 c-8 -5 -22 -9 -30 -9 -10 0 -8 3 5 9 27 12 43 12 25
0z m13 -27 c-7 -2 -19 -2 -25 0 -7 3 -2 5 12 5 14 0 19 -2 13 -5z m457 -17 c0
-2 -8 -10 -17 -17 -16 -13 -17 -12 -4 4 13 16 21 21 21 13z m-706 -45 c3 -5
-3 -11 -15 -14 -16 -4 -18 -3 -8 9 13 16 16 17 23 5z m636 -16 c-13 -14 -26
-22 -29 -19 -3 3 5 14 19 24 34 27 38 25 10 -5z m-630 -9 c0 -2 -7 -7 -16 -10
-8 -3 -12 -2 -9 4 6 10 25 14 25 6z m-560 -15 c-8 -4 -58 -5 -110 -1 l-95 7
110 1 c61 1 103 -2 95 -7z m1150 -5 c0 -2 -11 -11 -25 -20 -21 -14 -25 -14
-25 -2 0 8 10 17 23 19 12 2 23 5 25 6 1 0 2 -1 2 -3z m-105 -65 c3 -5 1 -12
-5 -16 -5 -3 -10 1 -10 9 0 18 6 21 15 7z m-30 -31 c-3 -5 -11 -10 -16 -10 -6
0 -7 5 -4 10 3 6 11 10 16 10 6 0 7 -4 4 -10z m-305 -126 c0 -2 -7 -4 -15 -4
-8 0 -15 4 -15 10 0 5 7 7 15 4 8 -4 15 -8 15 -10z m-235 -47 c19 -4 19 -5 -1
-6 -12 0 -28 7 -35 17 -12 15 -12 16 1 6 8 -7 24 -14 35 -17z m18 16 c-7 -2
-19 -2 -25 0 -7 3 -2 5 12 5 14 0 19 -2 13 -5z"/>
<path d="M6557 2946 c-54 -7 -100 -16 -104 -20 -3 -3 0 -6 7 -6 11 0 11 -3 2
-12 -10 -10 -14 -10 -21 0 -16 26 -160 -31 -280 -111 -102 -68 -110 -76 -86
-93 22 -16 12 -19 -14 -4 -15 8 -28 -1 -72 -51 -133 -149 -208 -309 -246 -524
-19 -109 -22 -381 -4 -475 22 -121 34 -161 48 -156 7 3 13 1 13 -4 0 -6 -4
-10 -10 -10 -5 0 -10 -7 -10 -16 0 -8 4 -12 10 -9 5 3 7 0 4 -8 -7 -19 35
-129 47 -122 5 4 6 -1 3 -9 -3 -8 -1 -23 5 -33 6 -10 11 -12 11 -5 0 6 5 12
11 12 7 0 9 -9 5 -24 -4 -16 2 -35 19 -60 14 -20 25 -41 25 -47 0 -5 7 -9 16
-7 10 2 19 -4 21 -12 4 -13 3 -13 -6 0 -6 9 -11 10 -11 3 0 -18 72 -98 86 -97
8 1 11 -2 9 -7 -3 -4 11 -24 32 -43 26 -23 40 -31 45 -23 7 11 12 3 9 -15 -1
-12 59 -53 126 -87 68 -34 78 -37 67 -19 -4 7 -3 8 5 4 6 -4 9 -11 6 -16 -7
-11 130 -53 225 -71 109 -20 329 -15 449 10 113 24 224 59 229 72 2 5 12 9 23
9 26 0 109 42 103 52 -3 4 3 5 12 1 13 -5 15 -3 9 7 -5 8 -4 11 3 6 14 -9 108
58 104 74 -1 6 2 9 8 5 6 -4 27 9 47 29 33 32 35 37 24 63 -7 15 -21 39 -32
52 -17 20 -22 22 -29 11 -5 -8 -12 -11 -17 -7 -4 5 -1 12 7 18 12 8 9 15 -18
39 -54 49 -85 44 -229 -43 -59 -35 -74 -58 -17 -26 20 11 38 18 41 16 2 -3 -9
-11 -26 -18 -22 -10 -27 -17 -20 -25 8 -10 2 -10 -24 -2 -27 8 -44 7 -78 -6
-40 -14 -41 -15 -9 -10 19 4 32 3 28 -1 -5 -5 -29 -10 -55 -11 -27 -1 -79 -11
-118 -20 -96 -24 -287 -25 -374 -1 -65 18 -192 77 -222 103 -9 8 -19 11 -22 7
-4 -3 -7 0 -7 9 0 8 -13 27 -30 41 -16 15 -30 23 -30 18 0 -5 -9 -7 -20 -4
-18 5 -19 7 -4 17 14 11 14 13 0 25 -8 7 -19 10 -24 8 -4 -3 -13 3 -20 14 -7
11 -8 19 -2 19 5 0 10 -4 10 -10 0 -5 4 -10 10 -10 5 0 0 15 -11 34 -13 22
-26 33 -37 31 -12 -2 -17 4 -18 21 -1 13 2 22 6 19 5 -3 -7 38 -26 90 -19 53
-34 107 -34 120 0 14 -3 25 -7 25 -5 0 -8 48 -8 108 l0 107 700 3 c623 3 697
5 670 18 -26 12 -26 13 -5 8 65 -14 113 -17 105 -5 -5 8 -1 11 11 9 18 -3 19
7 22 122 4 172 -21 333 -54 353 -8 4 -14 13 -14 20 0 8 4 6 11 -3 8 -12 9 -10
5 10 -3 14 -6 29 -6 33 0 5 -5 5 -12 1 -7 -4 -8 -3 -4 4 8 13 -61 155 -72 148
-5 -3 -14 0 -22 6 -12 8 -12 9 3 4 24 -8 22 0 -19 55 -20 27 -41 46 -46 42 -6
-3 -8 -2 -5 4 8 12 -61 79 -126 122 -51 35 -197 104 -197 95 0 -4 -6 -2 -12 4
-45 37 -317 59 -471 38z m453 -46 c8 -5 11 -10 5 -10 -5 0 -17 5 -25 10 -8 5
-10 10 -5 10 6 0 17 -5 25 -10z m-580 -4 c0 -2 -9 -6 -20 -9 -11 -3 -18 -1
-14 4 5 9 34 13 34 5z m560 -16 c8 -5 11 -10 5 -10 -5 0 -17 5 -25 10 -8 5
-10 10 -5 10 6 0 17 -5 25 -10z m105 -11 c15 -15 -10 -11 -41 7 l-29 16 30 -7
c17 -3 34 -11 40 -16z m-720 -9 c-3 -5 -12 -10 -18 -10 -7 0 -6 4 3 10 19 12
23 12 15 0z m799 -25 c11 -8 16 -18 12 -22 -3 -4 -16 3 -28 15 -25 25 -13 29
16 7z m-944 -15 c0 -5 -5 -10 -11 -10 -5 0 -7 5 -4 10 3 6 8 10 11 10 2 0 4
-4 4 -10z m-30 -20 c0 -5 -5 -10 -11 -10 -5 0 -7 5 -4 10 3 6 8 10 11 10 2 0
4 -4 4 -10z m1015 0 c-3 -5 -14 -10 -23 -9 -14 0 -13 2 3 9 27 11 27 11 20 0z
m35 -21 c0 -6 -4 -7 -10 -4 -5 3 -10 11 -10 16 0 6 5 7 10 4 6 -3 10 -11 10
-16z m-1080 4 c0 -8 -65 -53 -76 -53 -6 0 65 57 74 59 1 1 2 -2 2 -6z m1124
-34 c-6 -11 -24 -2 -24 11 0 5 7 7 15 4 8 -4 12 -10 9 -15z m-1139 -9 c-3 -5
-12 -10 -18 -10 -7 0 -6 4 3 10 19 12 23 12 15 0z m1180 -20 c10 -11 15 -23
12 -27 -4 -3 -7 -1 -7 6 0 8 -7 10 -19 6 -21 -6 -36 9 -26 25 9 15 20 12 40
-10z m-775 -30 c0 -5 -7 -10 -15 -10 -8 0 -15 5 -15 10 0 6 7 10 15 10 8 0 15
-4 15 -10z m-543 -36 c-15 -14 -27 -22 -27 -18 0 9 44 51 50 47 2 -2 -8 -15
-23 -29z m905 8 c31 -11 67 -18 80 -16 19 4 20 3 4 -4 -17 -7 -15 -11 18 -30
20 -12 44 -19 54 -16 11 4 13 3 5 -3 -9 -6 -1 -19 26 -46 27 -26 41 -34 45
-25 3 7 3 3 1 -9 -3 -12 -1 -24 5 -28 6 -3 22 -29 35 -56 16 -30 32 -49 43
-49 13 0 14 -2 4 -9 -11 -7 -11 -16 2 -55 17 -49 34 -178 28 -208 -3 -17 -39
-18 -582 -18 -330 0 -581 4 -584 9 -10 16 42 199 73 261 17 33 30 64 30 68 -3
19 2 32 12 32 7 0 8 -5 3 -13 -5 -7 4 3 21 23 52 61 108 111 163 142 55 31 67
44 31 33 -15 -5 -19 -4 -14 5 4 7 18 9 37 5 17 -4 28 -3 25 1 -3 5 9 10 26 11
18 1 55 6 82 12 81 16 260 7 327 -17z m-848 2 c3 -8 2 -12 -4 -9 -6 3 -10 10
-10 16 0 14 7 11 14 -7z m1328 -26 l23 -33 -31 25 c-17 14 -29 28 -27 33 7 11
10 9 35 -25z m-1031 -31 c-10 -9 -11 -8 -5 6 3 10 9 15 12 12 3 -3 0 -11 -7
-18z m-113 -22 c-3 -3 -9 2 -12 12 -6 14 -5 15 5 6 7 -7 10 -15 7 -18z m-292
-9 c2 -20 -1 -22 -11 -13 -9 8 -10 16 -3 25 13 16 13 16 14 -12z m343 -21
c-26 -24 -49 -51 -53 -61 -4 -9 -9 -14 -12 -11 -3 3 -1 14 5 25 7 13 7 23 -2
32 -10 12 -9 12 6 1 15 -12 21 -9 50 22 17 20 37 36 42 36 6 0 -11 -19 -36
-44z m-364 -5 c3 -5 1 -10 -4 -10 -6 0 -11 5 -11 10 0 6 2 10 4 10 3 0 8 -4
11 -10z m1520 0 c3 -5 1 -10 -4 -10 -6 0 -11 5 -11 10 0 6 2 10 4 10 3 0 8 -4
11 -10z m-8 -42 c-3 -8 -6 -5 -6 6 -1 11 2 17 5 13 3 -3 4 -12 1 -19z m-1551
-15 c-10 -10 -19 5 -10 18 6 11 8 11 12 0 2 -7 1 -15 -2 -18z m1275 4 c-10 -9
-11 -8 -5 6 3 10 9 15 12 12 3 -3 0 -11 -7 -18z m303 7 c3 -8 2 -12 -4 -9 -6
3 -10 10 -10 16 0 14 7 11 14 -7z m-1600 -39 c-4 -8 -10 -15 -15 -15 -4 0 -6
7 -3 15 4 8 10 15 15 15 4 0 6 -7 3 -15z m1336 -41 c0 -8 5 -14 10 -14 6 0 10
-5 10 -11 0 -8 -4 -8 -14 0 -16 13 -29 54 -15 45 5 -3 9 -12 9 -20z m-1042
-29 c-3 -3 -9 2 -12 12 -6 14 -5 15 5 6 7 -7 10 -15 7 -18z m-352 -42 c-8 -15
-15 -25 -16 -21 0 12 23 58 27 54 3 -2 -2 -17 -11 -33z m1439 -2 c-3 -6 -11
-11 -16 -11 -5 0 -4 6 3 14 14 16 24 13 13 -3z m-1125 -23 c0 6 4 12 10 12 5
0 7 -7 4 -15 -8 -21 -34 -19 -34 3 0 14 2 15 10 2 6 -10 10 -11 10 -2z m-35
-16 c-3 -3 -11 0 -18 7 -9 10 -8 11 6 5 10 -3 15 -9 12 -12z m28 -42 c-3 -12
-8 -19 -11 -16 -5 6 5 36 12 36 2 0 2 -9 -1 -20z m-306 -52 c-3 -8 -6 -5 -6 6
-1 11 2 17 5 13 3 -3 4 -12 1 -19z m1460 -30 c-3 -8 -6 -5 -6 6 -1 11 2 17 5
13 3 -3 4 -12 1 -19z m-1188 -21 c0 -21 -1 -21 -9 -2 -12 28 -12 37 0 30 6 -3
10 -16 9 -28z m64 -94 c-7 -2 -21 -2 -30 0 -10 3 -4 5 12 5 17 0 24 -2 18 -5z
m-406 -93 c-2 -24 -17 -15 -17 11 0 11 4 18 9 14 6 -3 9 -14 8 -25z m-10 -82
c-3 -7 -5 -2 -5 12 0 14 2 19 5 13 2 -7 2 -19 0 -25z m1503 -18 c0 -5 -9 -10
-21 -10 -11 0 -17 5 -14 10 3 6 13 10 21 10 8 0 14 -4 14 -10z m165 0 c4 -6
-10 -10 -37 -9 -40 1 -41 2 -13 9 43 11 43 11 50 0z m-1668 -102 c-3 -8 -6 -5
-6 6 -1 11 2 17 5 13 3 -3 4 -12 1 -19z m10 -110 c-3 -7 -5 -2 -5 12 0 14 2
19 5 13 2 -7 2 -19 0 -25z m330 0 c-3 -8 -6 -5 -6 6 -1 11 2 17 5 13 3 -3 4
-12 1 -19z m16 -88 c3 -11 1 -18 -4 -14 -5 3 -9 12 -9 20 0 20 7 17 13 -6z
m-3 -109 c0 -11 -3 -22 -7 -24 -5 -3 -8 6 -8 19 0 13 3 24 8 24 4 0 7 -9 7
-19z m31 -22 c-6 -16 -10 -18 -10 -7 -1 22 12 55 16 42 2 -6 -1 -22 -6 -35z
m-231 -168 c0 -9 -7 -3 -15 13 -19 36 -19 47 0 22 8 -11 15 -27 15 -35z m392
-71 c2 7 12 1 23 -12 19 -21 19 -22 1 -8 -15 12 -20 12 -24 2 -3 -10 -7 -10
-18 -1 -8 6 -14 16 -14 21 0 6 6 6 14 -1 10 -9 15 -9 18 -1z m1158 6 c0 -3 -4
-8 -10 -11 -5 -3 -10 -1 -10 4 0 6 5 11 10 11 6 0 10 -2 10 -4z m-89 -19 c-6
-8 -7 -18 -3 -22 4 -5 1 -5 -6 -1 -10 6 -10 11 -1 22 6 8 14 14 16 14 3 0 0
-6 -6 -13z m106 -19 c-3 -8 -6 -5 -6 6 -1 11 2 17 5 13 3 -3 4 -12 1 -19z
m-147 2 c0 -5 -10 -10 -22 -10 -19 0 -20 2 -8 10 19 13 30 13 30 0z m130 0 c0
-5 -5 -10 -11 -10 -5 0 -7 5 -4 10 3 6 8 10 11 10 2 0 4 -4 4 -10z m-1462 -45
c-3 -3 -9 2 -12 12 -6 14 -5 15 5 6 7 -7 10 -15 7 -18z m397 -14 c-3 -6 -14
-11 -23 -11 -13 0 -13 2 4 14 21 15 30 14 19 -3z m35 5 c0 -2 -8 -10 -17 -17
-16 -13 -17 -12 -4 4 13 16 21 21 21 13z m-429 -29 c-10 -9 -11 -8 -5 6 3 10
9 15 12 12 3 -3 0 -11 -7 -18z m1540 -20 c-10 -9 -11 -8 -5 6 3 10 9 15 12 12
3 -3 0 -11 -7 -18z m-1481 9 c0 -2 -8 -10 -17 -17 -16 -13 -17 -12 -4 4 13 16
21 21 21 13z m18 -16 c-7 -10 -14 -17 -17 -15 -4 4 18 35 25 35 2 0 -1 -9 -8
-20z m942 -20 c0 -5 -12 -10 -27 -9 -25 0 -26 1 -8 9 27 12 35 12 35 0z m530
6 c0 -3 -4 -8 -10 -11 -5 -3 -10 -1 -10 4 0 6 5 11 10 11 6 0 10 -2 10 -4z
m-887 -23 c-7 -2 -19 -2 -25 0 -7 3 -2 5 12 5 14 0 19 -2 13 -5z m-579 -19 c5
-14 4 -15 -9 -4 -17 14 -19 20 -6 20 5 0 12 -7 15 -16z m1396 -22 c0 -5 -19
-19 -41 -31 -33 -19 -43 -21 -49 -10 -5 7 -6 17 -3 23 4 5 9 2 12 -8 6 -15 8
-15 27 2 16 16 32 25 52 31 1 1 2 -3 2 -7z m-1226 -87 c-4 -8 -10 -15 -15 -15
-4 0 -6 7 -3 15 4 8 10 15 15 15 4 0 6 -7 3 -15z m63 -1 c-3 -3 -12 -4 -19 -1
-8 3 -5 6 6 6 11 1 17 -2 13 -5z m1018 -4 c-3 -5 -14 -10 -23 -10 -15 0 -15 2
-2 10 20 13 33 13 25 0z m-205 -64 c0 -11 -19 -15 -25 -6 -3 5 1 10 9 10 9 0
16 -2 16 -4z"/>
<path d="M7300 2720 c0 -5 5 -10 11 -10 5 0 7 5 4 10 -3 6 -8 10 -11 10 -2 0
-4 -4 -4 -10z"/>
<path d="M8655 2950 c15 -7 11 -8 -18 -4 -50 8 -160 -14 -153 -31 2 -7 -5 -16
-17 -19 -34 -9 -45 -6 -18 5 13 5 21 12 18 15 -10 10 -141 -45 -204 -86 -63
-41 -158 -129 -149 -138 3 -3 -3 -11 -14 -19 -11 -8 -25 -23 -31 -35 -10 -18
-9 -20 5 -15 13 5 14 3 4 -13 -9 -14 -14 -16 -20 -7 -4 7 -8 9 -8 6 0 -4 -7
-23 -16 -44 -14 -34 -14 -37 0 -32 9 4 16 2 16 -3 0 -6 -8 -10 -19 -10 -25 0
-31 -24 -38 -147 -6 -103 1 -153 34 -241 13 -34 19 -40 29 -31 11 9 14 7 14
-10 0 -14 -4 -20 -11 -15 -7 4 -7 -2 1 -17 15 -28 147 -159 161 -159 5 0 27
-11 47 -24 50 -31 542 -214 592 -219 8 -1 17 -4 20 -7 20 -20 114 -69 122 -64
6 4 8 3 5 -3 -4 -6 5 -21 20 -34 14 -13 36 -45 48 -71 17 -36 25 -44 33 -36 9
9 12 6 10 -14 -1 -15 -6 -24 -12 -21 -5 4 -7 -3 -3 -16 7 -26 -16 -139 -36
-178 -9 -15 -25 -38 -37 -50 -17 -19 -19 -27 -10 -43 12 -23 13 -22 -17 -25
-12 -1 -20 1 -17 6 2 4 11 6 19 2 11 -4 13 -1 9 11 -6 15 -9 15 -28 2 -11 -8
-20 -20 -18 -26 1 -6 -1 -9 -5 -7 -5 3 -24 -3 -43 -14 -19 -10 -29 -18 -22
-19 7 0 23 5 35 12 20 10 21 10 8 -5 -7 -10 -20 -17 -28 -17 -8 0 -12 -4 -9
-9 4 -5 -3 -7 -14 -4 -11 3 -17 10 -13 16 4 7 0 8 -13 3 -69 -27 -310 -54
-297 -34 2 5 -7 8 -21 8 -31 0 -184 48 -210 66 -11 8 -31 11 -45 9 -20 -4 -22
-3 -7 3 16 7 11 13 -37 40 -75 43 -134 62 -168 55 -35 -7 -76 -60 -59 -76 9
-9 15 -7 26 7 16 22 19 10 4 -14 -8 -12 -13 -13 -30 -3 -11 7 -21 13 -23 13
-1 0 -16 -24 -32 -53 -28 -52 -29 -87 -3 -87 9 0 9 3 0 12 -7 7 -12 16 -12 22
0 5 6 1 14 -9 8 -11 12 -23 10 -27 -7 -11 64 -61 90 -63 24 -3 66 -22 66 -30
0 -2 -8 -2 -17 1 -10 3 -4 -3 12 -12 71 -41 259 -101 357 -114 58 -8 276 0
383 14 71 9 235 68 243 88 2 4 10 8 17 8 20 0 167 120 148 120 -4 1 3 8 17 16
14 8 18 13 10 11 -10 -3 -16 2 -16 14 0 13 4 15 13 8 16 -14 34 -3 27 16 -4 8
-11 12 -17 8 -6 -4 -7 -1 -3 6 5 7 11 10 14 7 3 -3 12 0 21 7 14 11 14 10 2
-5 -7 -10 -11 -18 -7 -18 13 0 44 63 38 78 -3 9 -1 13 5 9 23 -14 73 182 73
288 0 111 -48 253 -83 247 -8 -1 -18 2 -22 7 -3 6 -13 8 -23 5 -13 -5 -14 -4
-3 4 11 8 10 13 -7 30 -11 11 -23 17 -27 14 -3 -4 -3 1 1 11 4 13 1 17 -15 17
-12 0 -21 5 -21 10 0 14 23 13 38 -2 8 -8 12 -8 12 -1 0 11 -63 63 -76 63 -3
0 -1 -7 6 -15 9 -10 9 -15 1 -15 -10 0 -15 13 -12 32 1 12 -81 56 -171 92
-168 68 -459 167 -470 160 -6 -4 -8 -3 -5 3 8 13 -41 36 -55 27 -6 -4 -8 -3
-5 3 4 6 -5 15 -19 22 -22 10 -29 9 -41 -6 -13 -17 -13 -16 -4 3 11 23 6 35
-13 28 -6 -2 -16 4 -21 14 -6 10 -25 40 -42 67 -26 39 -33 59 -33 99 0 37 -3
47 -10 36 -13 -20 -12 56 0 85 6 14 8 6 4 -25 l-5 -45 20 50 c12 28 41 74 67
102 25 29 37 50 28 46 -16 -6 -17 -5 -4 9 9 9 19 13 24 8 5 -5 18 -3 30 5 58
37 151 58 261 58 134 1 192 -13 360 -88 69 -30 135 -55 148 -55 13 0 37 15 57
35 19 19 30 35 26 35 -5 0 -15 -8 -23 -17 -13 -16 -13 -16 -3 5 6 12 16 22 23
22 17 0 39 38 31 52 -4 7 -3 8 4 4 6 -3 16 3 22 15 9 17 8 24 -6 40 -9 10 -23
19 -31 19 -7 0 -13 4 -13 9 0 5 -23 24 -51 42 -42 27 -53 30 -61 18 -8 -11 -9
-10 -4 4 5 15 -7 24 -57 48 -111 52 -245 80 -402 85 -96 3 -134 1 -120 -6z
m108 -7 c-7 -2 -21 -2 -30 0 -10 3 -4 5 12 5 17 0 24 -2 18 -5z m64 1 c-3 -3
-12 -4 -19 -1 -8 3 -5 6 6 6 11 1 17 -2 13 -5z m183 -34 c13 -9 13 -10 0 -10
-8 0 -22 5 -30 10 -13 9 -13 10 0 10 8 0 22 -5 30 -10z m61 -18 c-7 -2 -18 1
-23 6 -8 8 -4 9 13 5 13 -4 18 -8 10 -11z m-681 -22 c-13 -8 -13 -10 -1 -10 8
0 12 -2 10 -5 -3 -2 -15 -1 -28 2 l-23 6 23 13 c26 14 42 8 19 -6z m730 5 c0
-9 -9 -15 -22 -14 -20 1 -20 2 -4 6 15 4 16 7 5 14 -11 7 -11 9 4 9 9 0 17 -7
17 -15z m-805 -35 c-3 -5 -11 -10 -16 -10 -6 0 -7 5 -4 10 3 6 11 10 16 10 6
0 7 -4 4 -10z m-71 -48 c2 -4 -5 -9 -17 -9 -17 -2 -19 0 -7 7 18 12 18 12 24
2z m41 -14 c-9 -6 -19 -7 -22 -4 -4 3 -1 6 6 6 7 0 9 4 6 10 -4 6 1 7 11 3 15
-6 15 -7 -1 -15z m950 12 c-8 -12 5 -13 24 -1 17 11 41 3 41 -12 0 -8 -4 -7
-12 1 -7 7 -17 8 -29 2 -20 -11 -52 -3 -43 11 3 5 10 9 15 9 6 0 7 -4 4 -10z
m153 -85 c-3 -3 -9 2 -12 12 -6 14 -5 15 5 6 7 -7 10 -15 7 -18z m-1228 -5 c0
-5 -7 -7 -15 -4 -8 4 -12 10 -9 15 6 11 24 2 24 -11z m820 -20 c-8 -5 -19 -10
-25 -10 -5 0 -3 5 5 10 8 5 20 10 25 10 6 0 3 -5 -5 -10z m97 -16 c-3 -3 -12
-4 -19 -1 -8 3 -5 6 6 6 11 1 17 -2 13 -5z m-27 -14 c13 -8 13 -10 -2 -10 -9
0 -20 5 -23 10 -8 13 5 13 25 0z m310 0 c0 -5 -8 -10 -17 -10 -15 0 -16 2 -3
10 19 12 20 12 20 0z m-850 -4 c0 -2 -7 -7 -16 -10 -8 -3 -12 -2 -9 4 6 10 25
14 25 6z m610 -32 c0 -8 -5 -12 -10 -9 -6 4 -8 11 -5 16 9 14 15 11 15 -7z
m40 -13 c0 -5 8 -12 18 -14 14 -4 14 -5 1 -6 -9 0 -22 6 -29 14 -9 10 -9 15
-1 15 6 0 11 -4 11 -9z m143 -8 c-3 -7 -6 -13 -8 -13 -2 0 -5 6 -8 13 -3 8 1
14 8 14 7 0 11 -6 8 -14z m-892 -16 c-10 -9 -11 -8 -5 6 3 10 9 15 12 12 3 -3
0 -11 -7 -18z m826 -3 c-3 -3 -12 -4 -19 -1 -8 3 -5 6 6 6 11 1 17 -2 13 -5z
m48 -14 c-3 -5 -16 -10 -28 -9 -20 1 -20 2 3 9 14 4 26 8 28 9 2 1 0 -3 -3 -9z
m-921 -45 c-4 -8 -11 -15 -16 -15 -6 0 -5 6 2 15 7 8 14 15 16 15 2 0 1 -7 -2
-15z m-37 -177 c-3 -7 -5 -2 -5 12 0 14 2 19 5 13 2 -7 2 -19 0 -25z m46 -101
c12 -19 13 -24 2 -24 -8 0 -12 4 -9 8 2 4 0 10 -6 14 -9 6 -14 25 -6 25 2 0
11 -10 19 -23z m-346 -49 c-3 -8 -6 -5 -6 6 -1 11 2 17 5 13 3 -3 4 -12 1 -19z
m29 -66 c-15 -15 -15 -15 -4 10 7 15 15 23 17 17 2 -6 -4 -18 -13 -27z m449
-20 c-3 -3 -11 0 -18 7 -9 10 -8 11 6 5 10 -3 15 -9 12 -12z m50 -2 c3 -5 2
-10 -4 -10 -5 0 -13 5 -16 10 -3 6 -2 10 4 10 5 0 13 -4 16 -10z m244 -86 c13
-12 -8 -10 -29 2 l-25 15 25 -7 c14 -3 27 -8 29 -10z m-639 -36 c0 -14 -15 -8
-33 12 -9 11 -17 23 -17 26 0 8 49 -30 50 -38z m670 18 c0 -2 -8 -10 -17 -17
-16 -13 -17 -12 -4 4 13 16 21 21 21 13z m54 -15 c-8 -8 -53 -7 -48 1 3 4 16
7 29 6 13 -1 22 -4 19 -7z m-660 -40 c-2 -3 -12 3 -22 13 -16 17 -16 18 5 5
12 -7 20 -15 17 -18z m-33 2 c13 -16 12 -17 -3 -4 -10 7 -18 15 -18 17 0 8 8
3 21 -13z m816 -9 c-3 -3 -12 -4 -19 -1 -8 3 -5 6 6 6 11 1 17 -2 13 -5z
m-777 -14 c0 -5 -2 -10 -4 -10 -3 0 -8 5 -11 10 -3 6 -1 10 4 10 6 0 11 -4 11
-10z m875 -20 c13 -6 15 -9 5 -9 -8 0 -22 4 -30 9 -18 12 -2 12 25 0z m-762
-32 c-2 -5 -10 -8 -18 -8 -8 0 -16 3 -18 8 -3 4 5 7 18 7 13 0 21 -3 18 -7z
m839 -10 c14 -11 15 -15 3 -25 -9 -8 -16 -9 -20 -3 -3 6 0 10 7 10 8 1 6 6 -6
15 -11 8 -15 15 -10 15 6 0 18 -6 26 -12z m-436 -143 c16 -8 22 -15 13 -15 -8
0 -24 7 -35 15 -25 19 -14 19 22 0z m94 0 c0 -2 -14 -3 -31 -3 -17 1 -25 4
-18 8 10 7 49 2 49 -5z m37 -41 c-3 -3 -12 -4 -19 -1 -8 3 -5 6 6 6 11 1 17
-2 13 -5z m473 -4 c0 -5 -4 -10 -10 -10 -5 0 -10 5 -10 10 0 6 5 10 10 10 6 0
10 -4 10 -10z m41 -17 c13 -16 12 -17 -3 -4 -10 7 -18 15 -18 17 0 8 8 3 21
-13z m-430 -29 c8 -10 3 -10 -20 2 -17 9 -31 17 -31 19 0 8 40 -9 51 -21z
m452 -39 c-3 -9 -8 -14 -10 -11 -3 3 -2 9 2 15 9 16 15 13 8 -4z m-353 -30 c0
-12 -19 -12 -23 0 -4 9 -1 12 9 8 7 -3 14 -7 14 -8z m29 -39 c7 -8 8 -17 3
-20 -6 -3 -12 3 -15 14 -6 24 -4 25 12 6z m351 -137 c0 -5 -7 -9 -15 -9 -15 0
-20 12 -9 23 8 8 24 -1 24 -14z m-12 -64 c-3 -3 -9 2 -12 12 -6 14 -5 15 5 6
7 -7 10 -15 7 -18z m-8 -41 c0 -8 -5 -12 -10 -9 -6 4 -8 11 -5 16 9 14 15 11
15 -7z m-323 -59 c-7 -13 -14 -20 -15 -14 -2 5 2 16 8 24 18 21 20 18 7 -10z
m276 0 c-3 -9 -8 -14 -10 -11 -3 3 -2 9 2 15 9 16 15 13 8 -4z m30 -10 c-3 -9
-8 -14 -10 -11 -3 3 -2 9 2 15 9 16 15 13 8 -4z m-1203 -54 c0 -5 14 -14 30
-21 17 -7 29 -15 26 -17 -6 -6 -63 24 -71 37 -3 5 -1 10 4 10 6 0 11 -4 11 -9z
m854 -7 c3 -8 2 -12 -4 -9 -6 3 -10 1 -10 -6 0 -7 -2 -10 -5 -7 -5 5 4 38 10
38 2 0 6 -7 9 -16z m-844 -28 c0 -2 -7 -7 -16 -10 -8 -3 -12 -2 -9 4 6 10 25
14 25 6z m-207 -31 c-3 -9 -8 -14 -10 -11 -3 3 -2 9 2 15 9 16 15 13 8 -4z
m-9 -41 c4 -9 4 -19 1 -22 -3 -3 -5 0 -5 6 0 7 -7 12 -16 12 -8 0 -12 5 -9 10
9 15 22 12 29 -6z m400 7 c11 -4 15 -10 10 -13 -5 -4 -18 0 -29 8 -20 15 -12
17 19 5z m-14 -27 c0 -2 -7 -4 -15 -4 -8 0 -15 4 -15 10 0 5 7 7 15 4 8 -4 15
-8 15 -10z m100 -4 c8 -5 11 -10 5 -10 -5 0 -17 5 -25 10 -8 5 -10 10 -5 10 6
0 17 -5 25 -10z m47 -16 c-3 -3 -12 -4 -19 -1 -8 3 -5 6 6 6 11 1 17 -2 13 -5z
m700 -48 c-13 -14 -16 -14 -21 0 -3 8 -2 12 3 9 5 -3 13 0 16 6 4 5 9 8 12 5
3 -3 -1 -12 -10 -20z m-1197 4 c8 -5 11 -10 5 -10 -5 0 -17 5 -25 10 -8 5 -10
10 -5 10 6 0 17 -5 25 -10z m1070 -44 c0 -3 -4 -8 -10 -11 -5 -3 -10 -1 -10 4
0 6 5 11 10 11 6 0 10 -2 10 -4z m56 -21 c-11 -8 -24 -15 -30 -15 -5 0 -1 7
10 15 10 8 24 14 29 14 6 0 1 -6 -9 -14z m-76 -35 c0 -5 -9 -8 -20 -7 -20 1
-25 8 -14 20 8 7 34 -3 34 -13z m-805 -30 c3 -5 1 -10 -4 -10 -6 0 -11 5 -11
10 0 6 2 10 4 10 3 0 8 -4 11 -10z m712 -5 c0 -8 -4 -15 -8 -15 -11 0 -20 16
-12 24 11 11 20 7 20 -9z"/>
<path d="M11376 2951 c-3 -5 -15 -7 -25 -4 -21 5 -173 -30 -234 -55 -29 -11
-35 -17 -25 -24 9 -7 8 -8 -6 -4 -24 8 -108 -34 -102 -50 3 -7 -2 -15 -10 -18
-9 -4 -12 -2 -8 5 14 24 -33 -11 -87 -63 -60 -58 -106 -118 -91 -118 6 0 19
15 31 33 11 17 21 27 21 22 0 -6 -16 -33 -36 -60 -25 -34 -34 -42 -29 -25 l7
25 -17 -24 c-37 -50 -82 -213 -55 -196 6 3 7 -1 4 -9 -3 -9 -11 -13 -16 -10
-14 9 -4 -247 11 -298 9 -28 16 -36 29 -32 14 5 15 4 2 -5 -13 -9 -12 -16 7
-53 30 -61 82 -130 93 -123 5 3 7 0 5 -7 -6 -15 36 -60 51 -57 20 3 34 -2 34
-12 0 -8 -5 -8 -15 1 -9 8 -15 8 -15 2 0 -16 76 -73 92 -69 7 2 10 2 7 0 -4
-2 -5 -12 -2 -23 3 -12 -5 -25 -25 -40 -17 -13 -28 -28 -26 -35 3 -7 -2 -15
-12 -19 -14 -5 -15 -4 -4 9 7 8 9 15 4 15 -11 -1 -54 -36 -54 -45 0 -3 10 -4
23 0 19 5 20 4 4 -5 -9 -6 -21 -9 -26 -6 -12 8 -57 -46 -86 -105 -53 -103 -56
-221 -8 -295 13 -22 22 -32 20 -23 -5 14 7 17 42 10 3 -1 -4 -7 -15 -15 -18
-14 -18 -15 10 -45 16 -17 34 -28 39 -24 6 3 7 2 4 -4 -3 -5 5 -17 19 -27 13
-11 24 -24 24 -30 0 -6 -25 -22 -56 -35 -30 -13 -73 -37 -95 -53 -35 -26 -39
-31 -27 -46 12 -15 11 -16 -5 -3 -16 13 -22 10 -53 -20 -19 -18 -34 -40 -33
-49 2 -28 -1 -35 -10 -21 -7 11 -15 2 -34 -35 -32 -65 -38 -93 -38 -179 0 -87
9 -133 23 -113 6 9 7 6 3 -9 -3 -13 -3 -33 0 -44 6 -17 9 -19 17 -8 7 10 8 8
4 -7 -4 -13 5 -37 25 -67 112 -169 387 -291 702 -312 68 -5 87 -3 81 6 -4 8
-3 10 4 5 20 -12 185 -15 275 -5 98 12 247 52 230 62 -6 4 -19 4 -30 1 -15 -5
-15 -4 -3 5 8 5 30 8 48 5 86 -14 331 149 436 289 37 50 44 67 25 67 -5 0 -7
-4 -4 -10 3 -5 -1 -10 -11 -10 -13 0 -14 3 -4 15 7 8 19 15 26 15 22 0 55 76
48 106 -5 18 -3 25 4 20 16 -10 32 58 32 142 0 85 -18 171 -32 150 -5 -8 -6
-3 -2 15 4 17 2 27 -6 27 -6 0 -9 4 -6 9 3 5 -2 19 -12 31 -17 21 -19 21 -35
5 -9 -9 -17 -12 -17 -6 0 5 7 14 16 19 14 8 14 12 3 30 -8 12 -18 22 -23 22
-6 0 -5 -5 2 -12 7 -7 12 -16 12 -21 0 -5 -7 -2 -15 7 -8 8 -12 22 -9 30 3 9
2 16 -4 16 -5 0 -12 -7 -16 -15 -3 -8 -10 -15 -16 -15 -6 0 -4 7 5 16 14 15
15 18 0 34 -30 33 -216 117 -234 105 -6 -3 -11 -1 -11 4 0 6 -5 11 -11 11 -6
0 -8 -7 -5 -16 5 -12 2 -15 -10 -10 -8 3 -20 6 -25 6 -5 0 -8 5 -7 12 5 21
-68 28 -382 38 -271 8 -347 14 -440 35 -22 5 -22 4 -5 -4 15 -7 16 -10 4 -10
-9 -1 -24 8 -34 19 -10 11 -24 20 -31 20 -7 0 -29 16 -48 35 -52 51 -56 104
-19 203 5 11 3 13 -7 7 -9 -5 -11 -4 -6 4 4 6 11 9 16 6 5 -3 23 9 39 27 17
19 25 35 19 39 -12 8 80 5 268 -6 89 -5 157 -4 215 4 119 17 134 22 117 33 -9
6 -6 7 10 3 24 -7 45 -1 139 41 89 40 133 72 127 91 -5 15 -4 16 5 3 9 -12 22
-3 76 54 46 48 64 73 60 85 -15 36 -16 45 -2 22 l14 -24 29 48 c19 33 24 50
16 53 -7 2 -12 8 -12 14 0 6 7 8 15 4 11 -4 20 12 37 67 31 99 31 249 1 367
-29 112 -32 144 -13 146 8 0 10 -1 3 -3 -7 -3 -13 -8 -13 -13 0 -5 12 -5 28 0
15 5 70 16 121 24 141 22 164 47 154 166 l-6 60 -196 1 c-108 0 -245 5 -306
10 -60 6 -125 11 -142 11 -18 0 -33 3 -33 8 0 5 7 6 17 3 10 -4 14 -2 10 5
-10 15 -124 51 -215 68 -87 15 -298 19 -306 5z m177 -8 c-13 -2 -35 -2 -50 0
-16 2 -5 4 22 4 28 0 40 -2 28 -4z m-308 -33 c-11 -5 -29 -8 -40 -8 -16 0 -15
2 5 8 34 11 60 11 35 0z m-208 -83 c0 -7 -8 -13 -18 -13 -13 0 -15 3 -7 13 6
7 14 13 18 13 3 0 7 -6 7 -13z m1058 3 c15 -6 9 -8 -22 -7 -24 1 -43 5 -43 9
0 10 39 9 65 -2z m243 -7 c-10 -2 -26 -2 -35 0 -10 3 -2 5 17 5 19 0 27 -2 18
-5z m85 0 c-7 -2 -21 -2 -30 0 -10 3 -4 5 12 5 17 0 24 -2 18 -5z m110 0 c-7
-2 -21 -2 -30 0 -10 3 -4 5 12 5 17 0 24 -2 18 -5z m-1538 -43 c-3 -5 -12 -10
-18 -10 -7 0 -6 4 3 10 19 12 23 12 15 0z m-121 -75 c-4 -8 -11 -15 -16 -15
-6 0 -5 6 2 15 7 8 14 15 16 15 2 0 1 -7 -2 -15z m819 -34 c31 -11 76 -33 101
-50 24 -17 47 -27 51 -23 5 4 5 2 2 -4 -4 -7 0 -17 8 -24 27 -23 82 -115 94
-160 28 -103 18 -267 -20 -343 -12 -23 -37 -61 -55 -84 -19 -23 -29 -44 -24
-46 6 -3 5 -4 -2 -3 -7 1 -35 -12 -63 -29 -88 -56 -145 -70 -285 -70 -119 0
-207 14 -237 38 -7 5 -19 7 -28 3 -8 -3 -14 -1 -12 3 1 5 -19 25 -45 45 -27
20 -48 42 -48 48 0 5 -6 8 -14 5 -15 -6 -53 29 -43 39 3 3 11 -4 17 -16 6 -12
14 -19 17 -17 2 3 -9 28 -25 57 -16 28 -32 46 -34 39 -7 -21 -12 60 -12 191 0
147 19 208 85 284 22 25 37 46 32 46 -5 0 -14 -5 -21 -12 -9 -9 -12 -7 -12 13
0 13 4 20 8 14 10 -14 52 -17 52 -5 0 6 12 15 27 21 22 8 25 12 13 21 -13 8
-12 9 1 5 9 -3 43 3 75 13 86 28 318 28 397 1z m837 9 c-8 -5 -10 -10 -5 -10
6 0 2 -5 -8 -11 -14 -8 -22 -8 -30 1 -9 8 -8 10 4 5 10 -4 19 0 22 9 4 9 12
16 19 16 9 0 8 -3 -2 -10z m-731 -31 c18 -17 31 -33 28 -35 -4 -4 -67 53 -67
61 0 10 7 5 39 -26z m-939 1 c0 -5 -5 -10 -11 -10 -5 0 -7 5 -4 10 3 6 8 10
11 10 2 0 4 -4 4 -10z m230 -110 c-6 -11 -13 -20 -16 -20 -2 0 0 9 6 20 6 11
13 20 16 20 2 0 0 -9 -6 -20z m814 4 c3 -8 2 -12 -4 -9 -6 3 -10 10 -10 16 0
14 7 11 14 -7z m-1156 -54 c-15 -24 -19 -21 -11 8 3 12 9 19 14 16 5 -3 3 -14
-3 -24z m1202 -7 c0 -12 -2 -12 -15 1 -8 8 -15 17 -15 20 0 3 7 3 15 0 8 -4
15 -13 15 -21z m-899 -24 c-9 -22 -10 -22 -10 -3 -1 11 2 24 6 27 12 12 14 0
4 -24z m1200 -12 c-10 -9 -11 -8 -5 6 3 10 9 15 12 12 3 -3 0 -11 -7 -18z
m-286 3 c3 -5 1 -10 -4 -10 -6 0 -11 5 -11 10 0 6 2 10 4 10 3 0 8 -4 11 -10z
m-1245 -160 c0 -11 -4 -20 -10 -20 -5 0 -10 9 -10 20 0 11 5 20 10 20 6 0 10
-9 10 -20z m297 -77 c-2 -21 -4 -6 -4 32 0 39 2 55 4 38 2 -18 2 -50 0 -70z
m973 -13 c0 -5 -2 -10 -4 -10 -3 0 -8 5 -11 10 -3 6 -1 10 4 10 6 0 11 -4 11
-10z m-1283 -32 c-3 -8 -6 -5 -6 6 -1 11 2 17 5 13 3 -3 4 -12 1 -19z m1267
-54 c3 -8 2 -12 -4 -9 -6 3 -10 10 -10 16 0 14 7 11 14 -7z m-923 -101 c-12
-20 -14 -14 -5 12 4 9 9 14 11 11 3 -2 0 -13 -6 -23z m1136 -35 c-3 -8 -6 -5
-6 6 -1 11 2 17 5 13 3 -3 4 -12 1 -19z m-1394 -30 c9 -31 2 -33 -11 -3 -6 14
-8 25 -3 25 5 0 11 -10 14 -22z m351 -22 c7 3 21 -4 31 -16 10 -11 13 -20 7
-20 -6 0 -16 8 -21 18 -9 14 -12 14 -19 4 -7 -11 -10 -10 -16 3 -3 9 -5 22 -5
28 1 7 3 4 6 -5 2 -9 10 -15 17 -12z m767 -29 c-10 -9 -11 -8 -5 6 3 10 9 15
12 12 3 -3 0 -11 -7 -18z m-1035 -54 c2 -24 1 -25 -7 -10 -6 10 -8 21 -5 24 3
4 0 13 -6 22 -10 13 -10 14 2 4 7 -7 15 -25 16 -40z m1239 37 c3 -5 1 -10 -4
-10 -6 0 -11 5 -11 10 0 6 2 10 4 10 3 0 8 -4 11 -10z m-845 -30 c0 -5 -4 -10
-9 -10 -6 0 -13 5 -16 10 -3 6 1 10 9 10 9 0 16 -4 16 -10z m840 -11 c0 -5 -4
-7 -10 -4 -5 3 -10 -2 -10 -11 0 -10 -3 -15 -6 -11 -9 9 3 37 16 37 5 0 10 -5
10 -11z m-770 -9 c18 -12 2 -12 -25 0 -13 6 -15 9 -5 9 8 0 22 -4 30 -9z m274
-8 c2 -4 -5 -9 -17 -9 -17 -2 -19 0 -7 7 18 12 18 12 24 2z m-67 -8 c-3 -3
-12 -4 -19 -1 -8 3 -5 6 6 6 11 1 17 -2 13 -5z m250 0 c-3 -3 -12 -4 -19 -1
-8 3 -5 6 6 6 11 1 17 -2 13 -5z m153 -108 c-7 -7 -13 -7 -20 0 -6 6 -3 10 10
10 13 0 16 -4 10 -10z m-63 -2 c-3 -3 -12 -4 -19 -1 -8 3 -5 6 6 6 11 1 17 -2
13 -5z m-867 -38 c0 -2 -7 -7 -16 -10 -8 -3 -12 -2 -9 4 6 10 25 14 25 6z
m227 -32 c-3 -3 -12 -4 -19 -1 -8 3 -5 6 6 6 11 1 17 -2 13 -5z m126 -21 c-7
-2 -19 -2 -25 0 -7 3 -2 5 12 5 14 0 19 -2 13 -5z m250 0 c-7 -2 -19 -2 -25 0
-7 3 -2 5 12 5 14 0 19 -2 13 -5z m-498 -53 c-3 -5 -12 -10 -18 -10 -7 0 -6 4
3 10 19 12 23 12 15 0z m-248 -18 c0 -10 -9 -19 -20 -19 -18 -2 -18 -1 -2 18
22 23 24 24 22 1z m194 -9 c-8 -15 -10 -15 -11 -2 0 17 10 32 18 25 2 -3 -1
-13 -7 -23z m-231 -48 c0 -14 -4 -25 -10 -25 -8 0 -8 23 -1 48 4 12 11 -3 11
-23z m-50 -104 c0 -6 -4 -13 -10 -16 -5 -3 -10 1 -10 9 0 9 5 16 10 16 6 0 10
-4 10 -9z m-3 -53 c-3 -8 -6 -5 -6 6 -1 11 2 17 5 13 3 -3 4 -12 1 -19z m303
-9 c0 -6 -4 -7 -10 -4 -5 3 -10 11 -10 16 0 6 5 7 10 4 6 -3 10 -11 10 -16z
m-323 -21 c-3 -7 -5 -2 -5 12 0 14 2 19 5 13 2 -7 2 -19 0 -25z m413 -38 c8
-5 11 -10 5 -10 -5 0 -17 5 -25 10 -8 5 -10 10 -5 10 6 0 17 -5 25 -10z m-383
-57 l1 -28 -14 25 c-17 31 -17 41 -1 35 6 -3 13 -17 14 -32z m640 -3 c4 -13 3
-13 -6 0 -9 12 -14 13 -31 2 -11 -7 -20 -8 -20 -3 0 23 51 24 57 1z m110 4
c-3 -3 -12 -4 -19 -1 -8 3 -5 6 6 6 11 1 17 -2 13 -5z m116 -1 c-13 -2 -33 -2
-45 0 -13 2 -3 4 22 4 25 0 35 -2 23 -4z m136 3 c-8 -8 -78 -10 -85 -3 -4 4
14 7 41 7 27 0 46 -2 44 -4z m38 -12 c-3 -3 -12 -4 -19 -1 -8 3 -5 6 6 6 11 1
17 -2 13 -5z m-963 -84 c-6 -6 -10 -3 -10 10 0 13 4 16 10 10 7 -7 7 -13 0
-20z m1370 12 c3 -5 0 -9 -7 -9 -7 0 -21 -4 -32 -7 -13 -5 -12 -2 5 8 30 18
28 18 34 8z m-1303 -50 c-7 -2 -18 1 -23 6 -8 8 -4 9 13 5 13 -4 18 -8 10 -11z
m17 -67 c-3 -3 -9 2 -12 12 -6 14 -5 15 5 6 7 -7 10 -15 7 -18z m-33 -25 c3
-5 1 -10 -4 -10 -6 0 -11 5 -11 10 0 6 2 10 4 10 3 0 8 -4 11 -10z m-36 -14
c-10 -9 -69 -36 -69 -32 0 7 52 35 64 36 5 0 7 -2 5 -4z m498 -2 c-3 -3 -12
-4 -19 -1 -8 3 -5 6 6 6 11 1 17 -2 13 -5z m-457 -14 c8 -5 11 -10 5 -10 -5 0
-17 5 -25 10 -8 5 -10 10 -5 10 6 0 17 -5 25 -10z m194 -2 c-5 -8 -2 -9 12 -3
26 11 145 14 165 4 8 -4 102 -10 207 -14 168 -5 192 -3 192 10 0 8 7 15 15 15
8 0 12 -6 9 -15 -7 -17 10 -21 114 -30 41 -4 105 -17 143 -29 38 -12 69 -19
69 -14 0 5 5 6 10 3 6 -4 8 -11 5 -16 -6 -8 8 -13 27 -10 5 0 7 -3 5 -7 -4
-15 51 -73 57 -59 3 6 4 0 1 -15 -3 -15 -1 -30 5 -33 15 -9 11 -114 -5 -159
-8 -22 -11 -44 -8 -49 3 -6 1 -7 -4 -4 -16 10 -25 -23 -12 -40 9 -11 9 -17 0
-26 -10 -9 -11 -8 -5 7 5 14 3 17 -12 14 -10 -2 -18 -10 -17 -16 2 -7 -3 -11
-10 -9 -6 1 -11 -4 -10 -10 2 -7 -2 -12 -8 -10 -11 2 -23 -15 -33 -45 -3 -10
-11 -18 -18 -18 -8 0 -9 3 -3 8 6 4 11 14 13 22 3 11 -3 9 -20 -6 -31 -27
-155 -85 -193 -89 -11 -2 -45 -6 -75 -10 -30 -3 -64 -10 -75 -15 -33 -14 -93
-22 -75 -10 10 7 -21 10 -105 9 -126 -1 -156 2 -270 28 -68 16 -161 59 -197
91 -10 8 -18 10 -18 4 0 -6 5 -12 12 -14 7 -3 4 -7 -7 -12 -11 -4 -16 -4 -12
0 4 4 -1 16 -10 27 -12 14 -13 18 -3 12 8 -5 -1 11 -20 35 -56 72 -63 91 -66
168 -1 62 2 81 22 115 13 23 22 51 20 62 -2 11 -1 14 1 6 3 -9 21 2 54 35 l49
48 -22 23 c-12 13 -19 23 -15 23 3 0 15 -9 26 -21 11 -12 25 -18 31 -14 9 6 9
10 -1 17 -11 8 -10 9 3 5 9 -3 24 1 35 8 11 9 13 14 5 15 -18 0 -4 20 14 20 9
0 12 -5 8 -12z m-322 -25 c-6 -2 -9 -10 -6 -15 4 -7 2 -8 -5 -4 -13 9 -5 26
12 25 9 0 8 -2 -1 -6z m198 -22 c0 -5 -7 -12 -16 -15 -14 -5 -15 -4 -4 9 14
17 20 19 20 6z m1030 -11 c18 -12 2 -12 -25 0 -13 6 -15 9 -5 9 8 0 22 -4 30
-9z m-1010 -3 c0 -2 -10 -12 -22 -23 l-23 -19 19 23 c18 21 26 27 26 19z
m-290 -10 c0 -2 -10 -12 -22 -23 l-23 -19 19 23 c18 21 26 27 26 19z m-18 -59
c-7 -7 -12 -8 -12 -2 0 14 12 26 19 19 2 -3 -1 -11 -7 -17z m1418 7 c11 -13
10 -14 -4 -9 -9 3 -16 10 -16 15 0 13 6 11 20 -6z m367 -67 c-2 -13 -4 -5 -4
17 -1 22 1 32 4 23 2 -10 2 -28 0 -40z m-1865 -20 c-7 -7 -12 -8 -12 -2 0 14
12 26 19 19 2 -3 -1 -11 -7 -17z m-22 -73 c0 -8 -4 -15 -10 -15 -5 0 -7 7 -4
15 4 8 8 15 10 15 2 0 4 -7 4 -15z m1826 -181 c-4 -9 -9 -15 -11 -12 -3 3 -3
13 1 22 4 9 9 15 11 12 3 -3 3 -13 -1 -22z m-1511 -14 c3 -5 -1 -10 -10 -10
-9 0 -13 5 -10 10 3 6 8 10 10 10 2 0 7 -4 10 -10z m1465 -70 c0 -5 -5 -10
-11 -10 -5 0 -7 5 -4 10 3 6 8 10 11 10 2 0 4 -4 4 -10z m-1730 -40 c0 -5 -5
-10 -11 -10 -5 0 -7 5 -4 10 3 6 8 10 11 10 2 0 4 -4 4 -10z m34 -6 c3 -8 2
-12 -4 -9 -6 3 -10 10 -10 16 0 14 7 11 14 -7z m1301 -4 c-3 -5 -11 -10 -16
-10 -6 0 -7 5 -4 10 3 6 11 10 16 10 6 0 7 -4 4 -10z m355 -11 c-7 -11 -14
-18 -17 -15 -3 3 0 12 7 21 18 21 23 19 10 -6z m-1670 -9 c0 -5 -2 -10 -4 -10
-3 0 -8 5 -11 10 -3 6 -1 10 4 10 6 0 11 -4 11 -10z m1268 3 c-10 -2 -18 -9
-18 -14 0 -5 -7 -9 -16 -9 -8 0 -13 -3 -11 -7 3 -5 -6 -8 -19 -8 -13 0 -24 3
-24 8 0 4 9 7 20 7 10 0 25 7 32 15 7 8 22 14 33 13 17 0 17 -1 3 -5z m-808
-33 c0 -5 -7 -7 -15 -4 -8 4 -12 10 -9 15 6 11 24 2 24 -11z m-421 -7 c-1 -5
-1 -15 0 -23 1 -13 2 -13 11 0 8 13 10 12 10 -2 0 -25 -15 -22 -34 7 -14 22
-15 25 -1 25 8 0 14 -3 14 -7z m71 -12 c0 -5 -7 -12 -16 -15 -14 -5 -15 -4 -4
9 14 17 20 19 20 6z m1488 -9 c-9 -10 -13 -11 -19 0 -7 11 -9 11 -9 0 0 -7 -5
-10 -11 -6 -14 8 3 20 30 20 15 0 17 -3 9 -14z m-60 -42 c-7 -11 -15 -15 -17
-9 -2 6 3 15 10 20 20 12 21 11 7 -11z m-30 -24 c-2 -1 -12 -8 -22 -16 -18
-14 -18 -14 -6 7 8 12 18 19 23 16 4 -3 7 -6 5 -7z m-1339 -32 c14 -12 -19 -1
-35 12 -18 14 -18 14 6 3 14 -6 27 -13 29 -15z m1281 8 c0 -4 -9 -13 -19 -19
-15 -10 -20 -9 -25 2 -3 9 0 12 10 8 7 -3 14 0 14 6 0 6 5 11 10 11 6 0 10 -3
10 -8z m-92 -56 c-12 -7 -25 -11 -28 -9 -8 8 32 33 42 27 6 -4 -1 -12 -14 -18z
m-1033 -26 c8 -13 -5 -13 -25 0 -13 8 -13 10 2 10 9 0 20 -4 23 -10z m793 -48
c2 -7 -2 -10 -12 -6 -9 3 -16 11 -16 16 0 13 23 5 28 -10z m52 8 c0 -5 -5 -10
-11 -10 -5 0 -7 5 -4 10 3 6 8 10 11 10 2 0 4 -4 4 -10z m-110 -14 c0 -3 -4
-8 -10 -11 -5 -3 -10 -1 -10 4 0 6 5 11 10 11 6 0 10 -2 10 -4z"/>
<path d="M13880 2949 c-36 -5 -100 -21 -143 -35 -63 -21 -76 -29 -67 -39 6 -8
19 -11 28 -8 14 4 14 3 3 -5 -10 -7 -21 -6 -34 3 -17 12 -24 12 -48 -1 -20
-10 -27 -19 -23 -32 5 -13 4 -14 -4 -3 -8 11 -21 6 -68 -27 -74 -50 -166 -131
-159 -142 2 -4 -3 -14 -13 -22 -27 -24 -42 -30 -42 -19 0 6 6 11 14 11 7 0 19
7 26 15 15 18 7 19 -21 3 -17 -11 -23 -10 -26 0 -3 6 -8 10 -11 8 -4 -2 -8 24
-9 58 -3 80 -20 150 -45 181 -19 24 -22 25 -153 25 l-134 0 -1 -1065 0 -1064
36 -7 c23 -4 44 -2 56 5 10 6 18 7 18 2 0 -5 54 -8 126 -6 l127 3 4 788 4 789
77 75 c42 41 76 79 74 83 -1 5 3 5 9 1 7 -4 17 -1 23 7 7 8 34 26 61 41 28 14
49 31 47 38 -1 6 2 9 8 5 6 -4 27 -1 48 6 31 10 34 13 17 20 -15 5 -11 7 15 6
19 0 69 5 110 12 131 23 282 -5 375 -69 24 -16 45 -27 49 -25 3 3 4 2 1 -1 -2
-4 8 -22 22 -40 18 -25 29 -31 38 -24 16 13 25 3 25 -29 0 -24 0 -24 -15 -5
-14 18 -15 17 -5 -8 5 -15 18 -45 30 -67 11 -23 22 -69 25 -108 3 -37 8 -93
10 -123 3 -30 5 -280 6 -555 1 -275 4 -571 8 -658 l6 -158 150 -4 c181 -4 197
-1 191 31 -3 13 -1 26 4 29 12 8 4 1406 -9 1485 -6 36 -11 70 -11 75 0 6 -5 3
-11 -5 -8 -12 -9 -9 -5 13 8 34 -14 110 -51 180 -40 77 -43 80 -62 65 -14 -12
-14 -11 -3 4 16 20 8 40 -13 31 -8 -3 -15 0 -15 7 0 6 5 8 10 5 6 -3 10 -2 10
3 0 13 -139 142 -153 142 -5 0 -2 -10 9 -22 l19 -23 -22 19 c-13 10 -20 23
-17 28 8 12 -123 71 -142 64 -8 -3 -13 -2 -10 2 16 27 -253 49 -374 31z m-733
-45 c-3 -3 -12 -4 -19 -1 -8 3 -5 6 6 6 11 1 17 -2 13 -5z m58 -4 c-3 -5 -12
-7 -20 -3 -21 7 -19 13 6 13 11 0 18 -4 14 -10z m1090 -10 c-3 -5 -11 -10 -16
-10 -6 0 -7 5 -4 10 3 6 11 10 16 10 6 0 7 -4 4 -10z m-588 -6 c-3 -3 -12 -4
-19 -1 -8 3 -5 6 6 6 11 1 17 -2 13 -5z m660 -17 c4 -7 0 -8 -11 -4 -10 4 -22
7 -27 7 -5 0 -9 4 -9 9 0 12 38 2 47 -12z m-1121 -22 c-3 -20 -16 -31 -16 -13
0 13 8 28 16 28 1 0 1 -7 0 -15z m1252 -68 c6 -5 12 -14 12 -20 0 -7 -5 -4
-10 5 -7 12 -20 15 -43 13 -22 -3 -28 -2 -17 5 16 10 38 9 58 -3z m-1000 -21
c-7 -8 -15 -12 -17 -11 -5 6 10 25 20 25 5 0 4 -6 -3 -14z m-261 -53 c-3 -10
-5 -4 -5 12 0 17 2 24 5 18 2 -7 2 -21 0 -30z m202 10 c-8 -9 -13 -26 -12 -37
1 -15 0 -16 -3 -3 -3 9 -11 17 -17 17 -7 0 -1 9 13 20 31 24 37 25 19 3z m51
3 c0 -2 -7 -7 -16 -10 -8 -3 -12 -2 -9 4 6 10 25 14 25 6z m620 -36 c-8 -5
-19 -10 -25 -10 -5 0 -3 5 5 10 8 5 20 10 25 10 6 0 3 -5 -5 -10z m-710 -10
c0 -5 -4 -10 -10 -10 -5 0 -10 5 -10 10 0 6 5 10 10 10 6 0 10 -4 10 -10z
m267 -6 c-3 -3 -12 -4 -19 -1 -8 3 -5 6 6 6 11 1 17 -2 13 -5z m463 -4 c-12
-8 -12 -10 -1 -10 8 0 12 -2 9 -5 -3 -3 -13 -2 -22 1 -14 5 -15 9 -4 15 7 5
18 9 23 9 6 0 3 -5 -5 -10z m-633 -72 c-3 -8 -6 -5 -6 6 -1 11 2 17 5 13 3 -3
4 -12 1 -19z m735 8 c10 6 11 4 0 -7 -10 -11 -15 -10 -30 6 -15 17 -15 18 0 6
9 -7 23 -9 30 -5z m-672 -16 c-14 -11 -29 -20 -35 -20 -5 0 4 9 20 20 38 25
48 25 15 0z m1106 -67 c-2 -2 -10 10 -17 26 -8 17 -18 31 -22 31 -5 0 -5 5 -1
11 4 7 14 -3 25 -26 11 -21 17 -40 15 -42z m-1231 -3 c3 -6 -1 -7 -9 -4 -18 7
-21 14 -7 14 6 0 13 -4 16 -10z m-21 -19 c3 -5 0 -13 -7 -19 -10 -8 -13 -6
-13 9 0 20 11 25 20 10z m1237 -34 c-10 -9 -11 -8 -5 6 3 10 9 15 12 12 3 -3
0 -11 -7 -18z m-1271 -6 c0 -14 -52 -61 -61 -55 -15 9 -10 24 5 18 9 -3 21 5
31 20 18 27 25 32 25 17z m-45 -19 c-3 -3 -11 0 -18 7 -9 10 -8 11 6 5 10 -3
15 -9 12 -12z m1042 -144 c-3 -8 -6 -5 -6 6 -1 11 2 17 5 13 3 -3 4 -12 1 -19z"/>
<path d="M9300 1766 c0 -11 60 -69 65 -64 7 7 -43 68 -56 68 -5 0 -9 -2 -9 -4z"/>
</g>
</svg>
