<?xml version="1.0" encoding="UTF-8" standalone="no"?>
<!-- Created with Inkscape (http://www.inkscape.org/) -->

<svg
   xmlns:dc="http://purl.org/dc/elements/1.1/"
   xmlns:cc="http://creativecommons.org/ns#"
   xmlns:rdf="http://www.w3.org/1999/02/22-rdf-syntax-ns#"
   xmlns:svg="http://www.w3.org/2000/svg"
   xmlns="http://www.w3.org/2000/svg"
   xmlns:sodipodi="http://sodipodi.sourceforge.net/DTD/sodipodi-0.dtd"
   xmlns:inkscape="http://www.inkscape.org/namespaces/inkscape"
   width="2443"
   height="2196"
   viewBox="0 0 2443.0011 2195.9998"
   id="svg2"
   version="1.1"
   inkscape:version="0.91 r13725"
   sodipodi:docname="WE Design Team Logo Alternate.svg">
  <defs
     id="defs4">
    <inkscape:path-effect
       effect="spiro"
       id="path-effect3370"
       is_visible="true" />
  </defs>
  <sodipodi:namedview
     id="base"
     pagecolor="#ffffff"
     bordercolor="#666666"
     borderopacity="1.0"
     inkscape:pageopacity="0.0"
     inkscape:pageshadow="2"
     inkscape:zoom="0.2602107"
     inkscape:cx="601.02639"
     inkscape:cy="1323.466"
     inkscape:document-units="px"
     inkscape:current-layer="g4442"
     showgrid="false"
     inkscape:window-width="1680"
     inkscape:window-height="1028"
     inkscape:window-x="1912"
     inkscape:window-y="-8"
     inkscape:window-maximized="1"
     showguides="false"
     width="419mm"
     units="px" />
  <metadata
     id="metadata7">
    <rdf:RDF>
      <cc:Work
         rdf:about="">
        <dc:format>image/svg+xml</dc:format>
        <dc:type
           rdf:resource="http://purl.org/dc/dcmitype/StillImage" />
        <dc:title></dc:title>
      </cc:Work>
    </rdf:RDF>
  </metadata>
  <g
     inkscape:groupmode="layer"
     id="layer7"
     inkscape:label="Layer 1"
     style="display:inline"
     transform="translate(0,1143.6383)">
    <g
       id="g4442">
      <path
         sodipodi:nodetypes="sssccssssssssssssssccsssssssscssscsssssssssssscssccsssccsssssssssssssssssssssssssscssssscccssssssscsssssssssssscsccssscscscscsssssscccsssscccsssscsssssssssszsssssssssccsscsscsssssscsssssssscss"
         inkscape:connector-curvature="0"
         id="path3355"
         d="m 930.63877,-407.91361 c 2.8,-5.1785 6.6886,-10.94996 6.6886,-10.94996 2.3038,-2.92874 4.7524,-7.5714 5.4416,-10.31706 1.7086,-6.80758 -3.064,-34.02012 -5.2504,-49.07718 -1.9014,-25.27284 -3.0704,-29.48008 -4.2576,-52.11056 -0.096,-14.48368 -0.3368,-4.0624 0.7584,-45.67026 1.1528,-43.80436 3.7884,-65.7288 12.6752,-105.44288 17.13739,-76.5859 55.16003,-155.08966 107.33223,-221.60434 9.4596,-12.06014 16.5482,-17.97367 18.8208,-15.70099 0.5918,0.59176 -5.6382,11.23969 -13.8444,23.66205 -62.54105,94.67258 -95.53324,188.24164 -103.51783,293.58616 -2.418,31.90066 -1.0812,66.53618 -1.1384,71.1083 -0.054,4.27004 1.5728,43.81548 6.63179,61.99076 1.2558,4.5117 1.6018,11.28018 5.4144,4.6294 14.4682,-25.2386 28.73739,-47.3279 32.3958,-53.78392 3.60764,-6.36686 7.14364,-11.61954 15.76384,-23.44454 17.1742,-23.55958 61.1768,-69.02142 84.8726,-87.68712 61.9487,-48.79832 147.4897,-91.60388 227.0037,-113.59502 64.9684,-17.96832 106.7118,-23.75042 174.5447,-24.1772 29.225,-0.1838 42.07,-0.1538 54.2912,1.0644 53.3604,4.25122 64.6056,11.3655 90.8885,19.61736 22.9446,7.38758 49.4338,19.4582 69.2754,31.56766 8.1442,4.97036 19.7236,9.67462 31,12.59402 66.2196,17.14382 131.6429,49.99992 179.9999,90.39728 24.2316,20.24308 55.2964,53.166 74.3454,78.79256 16.6414,22.38784 21.9112,26.02874 28.7352,19.85316 5.1484,-4.65926 4.9866,-7.66314 -1.9374,-35.97724 -23.5888,-96.4594 -79.6936,-174.20256 -179.1432,-248.23446 -15.4,-11.46402 -30.6999,-23.11198 -33.9999,-25.88436 l -6,-5.0407 7,1.08154 c 10.1802,1.57284 44.2303,18.89508 68.2113,34.70092 51.8,34.14094 104.1326,83.71072 159.8672,151.42722 9.0536,11 17.2398,20.3 18.1914,20.66666 2.7646,1.06538 2.0044,-23.68358 -1.4472,-47.10612 -14.5538,-98.76138 -66.9066,-204.92488 -146.3256,-296.72535 -21.7036,-25.08718 -73.0446,-75.65818 -88.9971,-87.66218 -19.9776,-15.0329 -14.9558,-15.5138 19.9083,-1.9066 38.7574,15.1267 78.396,42.0531 117.3766,79.73356 118.5442,114.59071 195.1563,302.16289 183.5405,449.36919 -1.286,16.29698 -4.2252,38.63086 -6.5316,49.63088 -4.056,19.3441 -4.105,21.44298 -1.4938,64 3.6072,58.7892 3.6442,229.99032 0.058,268.00004 -9.9966,105.950389 -29.544,191.598389 -60.3149,264.27342 -8.0198,18.94108 -12.9742,26.87042 -33.1148,53.00002 -32.6114,42.30862 -60.6058,77.16582 -80.2602,99.93544 -9.3776,10.864 -17.689,22.5918 -19.1318,26.9958 -2.1666,6.6136 -5.8644,10.1202 -24.5436,23.276 -19.7986,13.944 -52.2022,34.1674 -77.2452,48.2098 l -9.2524,5.18802 c -15.9815,8.6288 0,0 -27.9531,14.1216 -0.6818,0 -11.918,4.5824 -24.969,10.1832 -44.5506,19.1188 -102.1026,36.5468 -150.573,45.597 -44.4661,8.3026 -67.8279,10.5094 -122.9999,11.6192 -30.2499,0.6084 -55.4499,-0.194 -55.9999,0.6604 -68.1462,-3.8776 -84.9928,-8.1908 -123,-18.77 l -25,-7.324 c -62.8946,-18.426 -120.5728,-45.8948 -164.0881,-78.14602 -46.0426,-34.124 -99.2754,-96.4738 -141.00385,-165.15322 -8.57699,-14.11662 -14.87539,-23.05344 -18.54699,-29.1508 -5.1392,-8.53428 -14.3978,-23.59472 -21.1834,-39.01502 -5.28719,-12.01478 -11.55259,-26.718811 -14.30259,-33.189411 -0.6054,-1.42418 -3.5878,-8.98462 -6.9032,-16.37422 -16.98259,-37.85086 -36.21319,-96.9082 -45.90879,-140.98616 -3.10339,-14.10894 -3.73839,-16.25124 -5.73339,-28.50896 -1.7962,-11.036149 -1.6732,-13.261829 -3.209,-24.701589 -1.2066,-8.9871 -2.5684,-31.73718 -3.0138,-39.46022 -0.3326,-5.7664 -0.144,-14.88034 0.3608,-30.28034 1.556,-47.44886 7.2412,-95.96872 19.28459,-136.41014 3.1128,-10.45226 3.7056,-14.3417 5.6636,-20.76722 1.7316,-5.68192 7.0858,-20.7024 11.0648,-29.2041 2.6578,-5.67878 8.19519,-18.91004 14.72899,-30.99356 z M 1326.9291,23.643519 c -32.6936,-9.05494 -96.1482,-37.75718 -128.5,-58.12448 -41.4794,-26.1136 -85.7159,-63.33098 -120.6419,-101.499429 -20.2442,-22.12354 -21.0282,-23.3482 -40.6848,-63.5582 -27.4464,-56.14438 -43.72245,-93.01366 -53.75844,-121.77516 -4.8702,-13.95754 -7.7098,-19.68082 -9.4258,-24.01954 -2.3776,-6.0112 -7.1114,-18.8443 -10.7744,-18.32686 -3.506,0.49524 -5.61139,15.58974 -8.42319,24.42814 -2.0606,6.4773 -3.6068,15.97682 -4.5624,35.6934 -0.8958,18.48176 -0.066,26.27634 6.9252,65 6.71459,37.19614 16.13359,65.87716 19.84419,76.74938 6.4764,17.63336 12.0988,31.39292 16.56319,44.26966 3.5104,10.12554 7.07705,16.64744 10.17865,24.069789 1.6424,3.93012 6.1368,13.66946 10.6998,25.15644 14.9382,37.60642 43.6948,77.17628 91.9186,126.48306 51.8025,52.965711 101.0753,89.254411 158.4161,116.671131 18.3012,8.7504 59.8262,25.42788 63.4752,26.28848 10.9848,3.25 39.6432,14.282 60.5058,17.5818 44.5042,4.3156 89.3694,7.0924 133.7441,3.666 13.2,-1.1126 37.05,-4.352 53,-7.1984 43.462,-7.756 111.1963,-30.92934 116.8449,-33.2723 12.7166,-5.27468 29.9522,-11.63172 40.672,-16.50454 12.1496,-5.5228 15.4448,-7.29722 18.4232,-8.71042 2.802,-1.32954 9.3312,-4.86996 19.88,-10.51658 25.665,-13.7379 40.3398,-24.48102 57.4612,-42.06568 20.6955,-21.255791 54.3319,-64.019131 78.3959,-99.667771 27.119,-40.17442 31.5816,-47.7574 39.4286,-67 3.5888,-8.8 8.8366,-21.4 11.662,-28 5.7914,-13.528509 6.6338,-23.346929 2.3108,-26.934709 -2.4234,-2.01122 -6.9402,1.6445 -26.5,21.448769 -61.6284,62.39788 -110.0833,87.8043397 -220.5787,115.65574 -11.55,2.9113 -21.5634,6.44094 -22.8154,6.97712 -5.5442,2.37448 -29.0054,6.28266 -45.317,9.71372 -6.1728,1.29842 -24.0152,4.01148 -43.5085,5.7004 -11.0316,0.9558 -67.2786,5.30188 -101.5078,6.91622 -14.1379,0.66678 -38.4063,0.1024 -58.1069,-1.16424 -19.217,-1.23548 -34.7448,-4.83604 -47.5876,-6.4583 -6.1914,-0.7821 -35.4782,-7.50532 -40.8494,-9.068 -7.8904,-2.2957 -26.1608,-8.42558 -26.8072,-8.60464 z M 1004.8816,-461.15489 c -0.8512,1.43894 -5.30164,8.91626 -9.88965,16.61626 -8.72999,14.65122 -11.13219,23.68366 -13.14719,28.53766 -4.3162,9.69156 -3.0754,10.3944 -0.9664,17.1756 4.9754,18.59528 11.26579,39.40482 17.6742,56.45802 2.89464,7.70282 7.16784,15.97788 15.77764,30.40822 54.9914,92.16726 133.6157,161.77112 230.8203,204.33814 20.4286,8.945965 75.2914,28.064929 80.5646,28.075709 1.2036,0.002 67.0516,17.76012 95.3434,23.34406 10.0304,1.97968 44.4986,7.3749 73.9401,9.0506 19.1938,1.49328 44.6942,1.97338 63.2484,0.94624 11.638,-0.64428 42.283,-3.801 71.3423,-11.08978 19.8174,-5.36266 19.6864,-5.78646 43.0246,-14.8952 25.3576,-9.89692 34.2014,-12.09962 40.2736,-21.45734 7.521,-11.590129 8.2828,-12.171029 12.7958,-9.755769 9.7012,5.191905 95.4272,-44.63612 131.7455,-76.57682 60.523,-53.22764 97.8284,-109.21302 123.1332,-184.78976 12.0502,-35.99016 11.7924,-44.57714 -2.1658,-72.14172 -26.126,-51.59334 -74.8758,-113.91134 -127.3968,-162.8541 -85.2259,-79.41986 -120.1593,-103.04496 -182.7057,-123.56232 -32.3564,-10.61404 -56.3117,-15.71734 -62.2029,-16.64214 -4.2426,-0.53034 -22.4732,-2.70658 -29.8094,-3.41368 -10.1106,-0.75826 -23.123,-1.10312 -34.2426,-1.65468 -5.375,-0.20172 -80.6497,0.52534 -112.6097,5.25472 -75.3708,11.1532 -139.2222,30.8651 -205.0532,63.30282 -58.677,28.91274 -108.5099,64.51748 -150.0615,107.21626 -19.5038,20.0423 -42.6904,54.04584 -46.9716,61.6696 -7.8648,14.00586 -21.4352,43.858 -21.1334,44.15968 z m 323.5475,698.86102 -12,-4.772 c -75.2236,-29.9144 -144.9552,-75.43702 -205.3997,-134.090331 -39.977,-38.7924 -68.4368,-80.78968 -106.9902,-157.88236 0,0 -15.46724,-28.9128 -19.25344,-38.5 -5.747,-14.551989 -9.0966,-22.589749 -12.1252,-31.627489 -4.6642,-14.55276 -7.8618,-21.93342 -11.2314,-36.45152 -1.0672,-4.59806 -18.61559,-80.06524 -21.92679,-88.74672 -1.4928,-3.9138 -2.8834,-5.1642 -4.2376,-3.8101 -2.492,2.49218 -4.9666,74.12278 -3.011,87.1636 0,0 0.164,4.16324 0.9204,11.4722 1.1756,11.36372 1.3628,15.9133 3.5956,32.13296 1.8154,13.18682 2.691,22.86672 4.6594,34.734729 1.9452,11.72808 12.2022,66.42572 16.25699,82.13234 1.136,4.4 9.2642,22.85002 18.0628,41.00002 20.83739,42.98412 24.1744,47.2047 29.07064,55.5 0,0 13.7104,25.195291 22.405,37.958891 8.6946,12.76362 7.4578,11.3644 27.066,34.05522 7.7368,8.95324 14.0798,13.39368 24.7458,25.17218 61.2832,67.67518 137.5899,119.3682 217.4689,147.3216 15.358,5.3746 22.325,8.1972 30.4576,9.882 30.5496,6.3288 33.8888,7.4818 60.7902,10.834 22.4554,2.7982 38.4568,2.5794 60.7382,4.1186 12.5108,0.8644 25.6892,2.156 54.9377,-0.8912 58.617,-6.1066 126.0043,-24.699 182.9999,-48.3518 11.1206,-4.615 40.4322,-19.5022 56.5482,-30.2342 30.473,-20.293 48.3674,-39.38822 50.0216,-42.06462 1.512,-2.4466 9.1576,-16.0898 2.7324,-16.8026 -3.0388,-0.8296 -81.5816,26.0992 -91.4178,28.7596 -25.64,6.9348 -71.8392,15.97202 -100.8845,19.73402 -35.2316,4.5636 -95.37,6.0662 -127.7377,3.192 -14.7058,-1.306 -18.3074,-0.8332 -28.252,-2.098 -11.7224,-1.4906 -41.8638,-6.7176 -60.0866,-10.8436 -18.7384,-4.24262 -58.9234,-17.99742 -58.9234,-17.99742 z M 1113.4292,-975.33152 c 0,-2.51024 12.8216,-13.49508 20.2128,-17.31727 12.8007,-6.61962 8.1166,2.33276 -7.013,13.40289 -7.7878,5.69822 -13.1998,7.30316 -13.1998,3.91438 z m 41.9999,-34.05568 c 0,-3.0816 25.6164,-23.5217 50,-39.8965 75.8192,-50.9165 185.7446,-87.5362 275,-91.6112 14.2999,-0.6529 25.4567,-0.5968 24.7931,0.1246 -0.6638,0.7214 -16.4137,3.9605 -34.9999,7.1981 -77.0952,13.4291 -150.1328,36.1415 -202.3398,62.9214 -11.7994,6.0526 -41.2034,22.7288 -65.3422,37.0584 -24.1386,14.3295 -44.6136,26.0537 -45.5,26.0537 -0.8862,0 -1.6112,-0.8319 -1.6112,-1.8485 z m 406.2153,-124.1368 c -5.9314,-2.1544 -11.1966,-4.3291 -11.7002,-4.8328 -2.148,-2.148 2.1544,-5.1819 7.3486,-5.1819 7.531,0 24.571,7.6874 23.5974,10.6458 -1.2438,3.7801 -7.6816,3.569 -19.2458,-0.6311 z"
         style="display:inline;fill:#afc3ff;fill-opacity:1" />
      <path
         id="path4227"
         d="m 1460.5309,906.39695 c -0.5856,-0.5856 -0.7612,-267.02384 -0.3902,-592.0847 0.553,-484.36316 0.2044,-591.2004 -1.932,-592.0202 -1.4338,-0.55018 -17.5608,4.88788 -35.8382,12.08456 -18.2772,7.19668 -36.2036,13.07008 -39.8364,13.05198 -17.9878,-0.0896 -31.8932,-17.68476 -33.273,-42.10138 -0.6424,-11.36834 0.09,-15.30684 4.8,-25.80132 l 5.5582,-12.38502 29.1548,-14.59896 c 16.0352,-8.02942 36.1622,-17.08548 44.7268,-20.12452 8.584,-3.04604 15.2458,-6.51956 14.8454,-7.74072 -0.8884,-2.7102 -3.351,-3.30414 -174.4172,-42.06592 -193.8659,-43.92796 -195.0339,-44.19682 -303.99994,-69.97704 -118.82336,-28.11236 -132.81356,-32.4649 -149.99995,-46.66718 -10.517,-8.69092 -19.1954,-26.50508 -12.9122,-26.50508 1.1484,0 58.07338,10.68638 126.49996,23.74752 68.42683,13.06112 129.36223,24.66968 135.41223,25.79676 22.4316,4.17894 56.2266,10.75648 99.9999,19.46314 109.5902,21.79784 348.3919,66.9926 353.9777,66.9926 9.0118,0 19.7486,-5.1163 21.8166,-10.39608 0.9918,-2.53216 5.5288,-16.19454 10.0822,-30.36084 24.7768,-77.0844 48.498,-131.43002 96.3854,-220.82144 11.9558,-22.31808 21.7402,-41.2181 21.7432,-42.00002 0,-0.78192 3.2358,-6.77956 7.1844,-13.3281 3.9486,-6.54854 18.4562,-32.19854 32.239,-57 42.5977,-76.65288 127.459,-218.60279 137.257,-229.59359 6.5258,-7.3201 13.3144,-5.0291 13.3144,4.4933 0,2.0257 -93.2781,235.85849 -118.08,296.00671 -2.2678,5.50002 -28.0766,69.40002 -57.3528,142.00004 -29.2762,72.6 -54.4174,133.40658 -55.8694,135.1257 -1.4522,1.71914 -7.5726,4.68046 -13.601,6.58072 -20.4026,6.43142 -17.541,8.02204 19.8734,11.04662 23.9646,1.93728 23.9716,1.9394 30.5,9.06298 7.406,8.08138 8.7674,19.0555 3.603,29.04252 -1.6098,3.11294 -18.2626,17.68466 -37.0064,32.38158 -18.7438,14.69696 -33.7842,27.60778 -33.4232,28.69076 0.361,1.08298 4.6388,1.58566 9.5064,1.11704 4.8674,-0.46862 12.8126,-0.8961 17.6556,-0.94996 l 8.8058,-0.098 62.606,135.00002 c 34.4336,74.25 67.4771,144.90003 73.4301,157.00003 5.953,12.1 17.376,36.3999998 25.3844,54.00002 33.2227,73.01366 74.5071,162.13471 75.9711,164.00001 0.8632,1.1 8.4686,17.3 16.901,35.99994 8.4322,18.7 19.2546,42.1 24.0496,52.00002 4.7952,9.9 15.6872,33.3 24.2046,52 l 15.486,34 1.9464,27.2244 c 2.2246,31.12002 0.2616,54.77562 -4.5454,54.77562 -1.6252,0 -6.4834,-6.3 -10.7962,-14 -18.7894,-33.5478 -54.9552,-100.46442 -69.7192,-129.00002 -8.8216,-17.05 -17.5992,-33.25002 -19.5056,-36.00002 -1.9064,-2.75 -10.4836,-18.5 -19.0604,-35 -22.7761,-43.81716 -71.4895,-134.57427 -85.8791,-159.99995 -6.8481,-12.1 -20.7977,-37.75 -30.9997,-57.0000201 C 1638.547,-146.59955 1563.5016,-284.49827 1561.3828,-284.51659 c -2.0194,-0.018 -2.305,8.97476 -1.3806,43.478 2.9276,109.26044 5.1488,209.93115 6.8286,309.50007 1.0022,59.39999 2.5536,130.05001 3.4476,156.99995 0.894,26.95 1.426,50.80002 1.1822,53.00002 -0.2436,2.2 0.4274,33.25 1.4914,69 1.064,35.75002 2.4624,101.90002 3.1076,147.00002 0.645,45.10002 2.7692,155.80004 4.7202,246.00004 1.9512,90.20002 3.1798,164.67504 2.7302,165.50004 -0.9152,1.6802 -121.3081,2.1062 -122.9791,0.4352 z"
         style="display:inline;fill:#837777;fill-opacity:1"
         inkscape:connector-curvature="0" />
      <path
         inkscape:connector-curvature="0"
         id="path3351"
         d="m 1745.9288,1048.6103 c -83.1452,-14.6504 -129.6802,-56.84237 -126.623,-114.80587 1.6402,-31.09696 19.398,-55.41536 53.3728,-73.09098 l 16.6456,-8.66 -13.9576,-12.7388 c -15.106,-13.787 -19.1246,-21.1408 -21.2324,-38.853 -3.1686,-26.6272 15.0728,-58.98782 42.2946,-75.03162 3.575,-2.107 6.5,-4.9436 6.5,-6.3036 0,-1.36 -3.9414,-5.1844 -8.7586,-8.499 -13.8116,-9.5024 -32.7204,-31.5482 -40.3424,-47.035 -9.9446,-20.2062 -13.5002,-39.2696 -12.3346,-66.13082 1.0928,-25.176 5.5958,-41.048 17.0228,-60 25.62,-42.49122 71.1028,-66.20202 134.4839,-70.10822 31.4856,-1.9404 69.2587,5.2096 92.2057,17.4536 8.4212,4.4934 10.7658,4.6892 67.7232,5.6546 l 59,1 0.5744,17.25962 c 0.5662,17.0146 0.4892,17.3312 -5.4208,22.3042 -5.8512,4.9236 -12.0466,6.4642 -44.1536,10.9808 -12.9656,1.824 -13.0966,2.4146 -5.8712,26.4554 3.3258,11.065 4.5346,20.2466 4.6088,35 0.118,23.65882 -3.6014,39.71182 -14.0216,60.50462 -29.031,57.9308 -99.8884,86.85142 -182.9571,74.6748 -19.0349,-2.7902 -19.3103,-2.7712 -25.6779,1.763 -3.5402,2.5206 -9.0566,8.20002 -12.2588,12.62042 -7.5154,10.3746 -8.2986,27.7494 -1.633,36.2232 12.1526,15.4496 41.3747,21.1766 108.1662,21.1988 62.5422,0.02 91.0018,4.1634 119.0168,17.3242 37.8016,17.7584 56.5702,52.79102 50.6494,94.53902 -9.046,63.78286 -66.8708,112.51383 -150.7836,127.07083 -24.6973,4.2844 -79.8197,3.8848 -106.238,-0.7702 z m 117.601,-57.85237 c 22.0688,-5.9188 41.5686,-16.7326 53.2802,-29.5468 12.2762,-13.4323 16.8726,-26.2313 15.7502,-43.85766 -0.998,-15.673 -7.7618,-25.2426 -23.3924,-33.0964 -18.8406,-9.4666 -36.5488,-12.0062 -96.2389,-13.8018 -30.25,-0.91 -59.369,-2.65582 -64.7088,-3.87942 -9.2985,-2.1306 -10.2393,-1.9284 -22.2413,4.78362 -23.8376,13.3308 -41.05,37.29 -41.05,57.14056 0,27.3047 18.7934,48.2751 53,59.1399 23.5961,7.4944 34.2319,8.635 74.0001,7.9354 28.7593,-0.506 39.1377,-1.4748 51.6009,-4.8174 z m -30.464,-303.5193 c 26.4142,-7.8372 42.2426,-20.6388 52.5176,-42.4746 5.5304,-11.7528 6.3478,-15.7884 7.0182,-34.64402 0.6396,-17.9882 0.068,-23.416 -3.6354,-34.546 -7.604,-22.85 -23.2236,-38.615 -47.1842,-47.6232 -10.1173,-3.8038 -15.8065,-4.456 -38.8531,-4.4534 -30.8698,0 -45.4068,3.7836 -62.3351,16.2102 -20.0248,14.6994 -28.6414,35.1044 -28.6554,67.858 0,21.54342 0.182,22.49162 7.5352,37.36942 15.4364,31.233 40.6495,45.0872 82.5923,45.384 13.079,0.092 23.9446,-0.9872 30.9999,-3.0806 z M 826.5316,902.46807 c -23.56779,-4.3944 -36.29119,-8.446 -54.40858,-17.3256 -38.74799,-18.99082 -69.88118,-52.12702 -87.66038,-93.29982 -16.13699,-37.3696 -22.85039,-77.39362 -20.86319,-124.38102 2.464,-58.26022 19.87039,-103.75802 53.45219,-139.71702 32.81379,-35.13662 72.93717,-54.35182 123.31456,-59.05562 50.25198,-4.692 94.99997,6.8942 131.01196,33.92122 40.25064,30.2084 65.73544,85.8746 66.31504,144.85142 0.13,13.2 -0.4712,26.5342 -1.3352,29.6318 -3.2024,11.4782 -1.6846,11.3682 -156.65541,11.3682 l -141.35516,0 1.1572,19.5 c 2.4128,40.66442 17.73339,78.78442 41.11359,102.29782 46.23198,46.4954 125.97116,47.6058 197.03674,2.744 18.85179,-11.9008 27.69844,-9.7302 43.06304,10.5662 5.6162,7.4186 10.211,14.782 10.211,16.363 0,4.8462 -20.663,23.0176 -37.26665,32.77282 -47.83858,28.107 -113.39756,39.7816 -167.13075,29.7626 z M 968.55376,629.59123 c 0.3436,-5.4286 -0.9128,-16.22862 -2.792,-24.00002 -9.74419,-40.298 -34.14999,-67.2044 -70.69578,-77.9388 -16.33299,-4.7976 -50.79598,-4.2886 -70.55038,1.0416 -34.65459,9.3508 -62.82598,37.726 -75.22297,75.7676 -5.6014,17.1884 -8.716,31.81162 -7.2728,34.14662 0.7142,1.1558 44.69278,1.6864 113.53756,1.37 l 112.37157,-0.5166 0.6248,-9.8704 z m 241.37514,275.65664 c -27.4054,-4.0334 -55.9576,-13.5338 -78.4107,-26.0902 -14.9066,-8.3362 -32.5892,-21.84282 -32.5892,-24.89282 0,-4.2272 16.662,-30.0046 22.6526,-35.0454 8.8062,-7.41 18.8576,-5.8404 37.6641,5.8812 44.599,27.7974 85.722,33.9562 126.6832,18.973 16.5308,-6.0468 34.7624,-24.165 39.5884,-39.3418 7.8936,-24.8248 1.6756,-48.1666 -16.3534,-61.38882 -14.2664,-10.463 -27.4428,-16.025 -75.3862,-31.8224 -25.5748,-8.4268 -52.1766,-18.6554 -62.8364,-24.161 -41.5393,-21.4542 -61.9467,-52.7146 -61.9515,-94.89802 0,-47.7124 26.8906,-87.905 72.9391,-108.99902 47.3588,-21.694 113.1208,-21.3094 162.2104,0.949 15.089,6.8416 37.638,21.41162 44.5532,28.78762 l 4.7634,5.0812 -9.3902,15.0658 c -10.203,16.3702 -15.3586,21.1154 -22.942,21.1154 -2.7034,0 -14.8908,-4.9062 -27.0832,-10.9026 -26.4504,-13.0086 -40.2406,-17.029 -63.5438,-18.5252 -20.5092,-1.317 -37.8906,1.5986 -53.524,8.9782 -35.9444,16.967 -47.4588,57.617 -23.0424,81.347 12.9012,12.53862 31.2236,21.10642 78.9986,36.94122 58.0964,19.2556 80.7326,30.4282 99.1534,48.939 22.4894,22.5992 30.4086,44.09 28.1882,76.49642 -2.4672,36.0124 -13.5724,61.1944 -37.5182,85.0764 -12.3558,12.32282 -19.0826,17.14582 -34.1074,24.45442 -28.1192,13.6784 -44.834,17.4002 -81.716,18.1958 -17.05,0.3678 -33.7,0.2712 -37,-0.2144 z M 73.852741,897.96167 c -0.52308,-1.375 -0.71984,-136.60002 -0.43724,-300.50006 l 0.51382,-298.00004 124.999969,-0.6146 c 129.20506,-0.6354 143.82465,0.002 176.99984,7.7152 95.36518,22.1722 167.12376,85.30682 199.92655,175.89942 23.69759,65.44582 24.82619,157.32924 2.7762,226.00004 -2.296,7.15 -9.414,23.8 -15.8182,37 -19.25619,39.69062 -44.26119,70.47742 -77.69778,95.66382 -41.38559,31.17402 -88.71397,49.40482 -148.29055,57.12102 -25.605,3.3162 -261.69995,3.0606 -262.972609,-0.2848 z M 339.44775,829.38445 c 69.43518,-12.1458 117.52236,-47.7776 145.73895,-107.99022 12.4718,-26.6142 17.8278,-46.2708 22.7414,-83.4624 7.63159,-57.76342 -1.8562,-120.26642 -25.2488,-166.33104 -10.55899,-20.793 -17.50899,-30.6886 -33.33879,-47.469 -30.93719,-32.795 -74.73817,-52.59042 -127.41136,-57.58202 -31.92259,-3.0252 -161.50836,-2.7798 -164.59986,0.3118 -1.83866,1.8386 -2.4,55.83022 -2.4,230.83644 0,125.64002 0.54628,229.86004 1.21398,231.60004 1.07982,2.814 10.3071,3.1628 83.49998,3.1572 64.93291,0 85.9803,-0.6526 99.8045,-3.0708 z m 1748.42045,68.62242 c -0.5334,-1.3998 -0.738,-97.04522 -0.4546,-212.54524 l 0.5152,-210.00004 26.5325,-0.5584 c 25.7402,-0.5416 26.6768,-0.414 31.361,4.2702 5.637,5.637 8.2602,14.6516 10.1658,34.93442 0.9106,9.693 2.3222,15.0094 4.1736,15.72 1.6098,0.6176 6.4006,-2.5444 11.2824,-7.447 10.8144,-10.8602 33.3112,-27.71242 47.4846,-35.57042 35.8662,-19.885 87.7902,-24.7818 129.277,-12.192 41.899,12.715 74.524,49.08002 86.665,96.59982 6.923,27.0968 8.0546,53.99562 8.0564,191.49844 0,110.93202 -0.4612,133.63942 -2.7614,135.54842 -1.903,1.5792 -13.577,2.1224 -37.5,1.7448 l -34.737,-0.5482 -1.0922,-146.00002 c -1.1724,-156.70224 -1.15,-156.36424 -11.893,-180.20984 -13.4868,-29.9362 -40.0906,-44.8116 -80.0148,-44.7404 -33.6966,0.06 -69.883,16.8404 -99.5906,46.1818 l -12.3852,12.2326 -0.512,156.26782 -0.5122,156.26804 -36.5454,0.5452 c -28.1443,0.42 -36.7683,-0.04 -37.5151,-2 z M 177.18173,156.65983 c -3.212,-2.0346 -178.8792867,-563.56608 -177.16932722,-566.33284 0.6412398,-1.03756 16.41333522,-1.86228 35.53496922,-1.85812 30.551091,0.006 35.09407,0.44168 40.773288,3.90452 3.515219,2.14336 7.743338,5.965 9.395777,8.49252 3.217579,4.92144 120.991043,399.26648903 126.410623,423.265069 1.77992,7.88178 3.97476,14.3305 4.87742,14.3305 0.90266,0 2.70842,-5.175 4.01276,-11.5 3.35086,-16.24868 139.3191,-418.068609 144.0649,-425.747409 6.3994,-10.35456 15.13619,-13.22278 37.87539,-12.43432 17.71519,0.61426 20.18639,1.1759 24.99859,5.68164 2.9372,2.75 6.2336,6.6574 7.3252,8.68312 2.5402,4.7142 133.89056,395.335009 139.65456,415.316969 6.01739,20.86036 5.95859,20.70138 7.20039,19.45956 0.6122,-0.61212 2.7594,-8.61594 4.7718,-17.78626 5.2322,-23.8432 121.74717,-413.751549 125.28857,-419.268869 1.6224,-2.52752 5.82599,-6.34916 9.34119,-8.49252 5.6386,-3.43812 10.2046,-3.89792 38.77319,-3.90452 17.8102,-0.004 32.86599,0.7756 33.45759,1.7327 1.6206,2.62248 -174.15715,564.59566 -177.20215,566.52642 -4.39619,2.78756 -62.34998,2.11732 -66.27818,-0.7665 -2.1492,-1.57786 -30.76299,-85.124531 -77.57377,-226.500031 -40.79279,-123.200029 -74.53238,-224.375049 -74.97698,-224.833389 -0.4446,-0.45832 -1.0456,-0.45832 -1.3358,0 -0.2902,0.45834 -34.11199,101.86518 -75.15978,225.348529 -55.19534,166.0434 -75.59812,225.032111 -78.34098,226.500031 -4.55538,2.43798 -61.90728,2.59784 -65.71924,0.1832 z m 695.24726,-0.25258 c -3.3066,-2.0261 -3.4982,-17.62826 -3.4692,-282.5452 0.02,-154.22036 0.748,-281.53066 1.6248,-282.91178 1.2634,-1.9898 37.69159,-2.405 175.46941,-2 l 173.8749,0.51112 0.5564,28.72724 c 0.352,18.17912 -0.225,29.6686 -1.5714,31.29096 -1.6932,2.0401 -29.2784,2.53956 -135.0623,2.44548 -73.114,-0.065 -133.41003,0.35716 -133.99103,0.93822 -1.759,1.75902 -1.1818,184.14786 0.5884,185.91806 0.9048,0.9047 50.20783,1.87784 109.56263,2.1625 l 107.9173,0.51758 0,29 0,29.00002 -107.9173,0.51758 c -59.3548,0.284665 -108.64823,1.248045 -109.54103,2.140829 -2.1234,2.1235 -2.1202,188.56292 0,190.6865 0.8946,0.89458 61.88803,1.85794 135.54103,2.14082 l 133.9133,0.5143 0.557,28.842991 c 0.3306,17.10944 -0.2464,29.64656 -1.4182,30.81828 -2.8758,2.87576 -341.99071,4.13238 -346.63871,1.2845 z"
         style="display:inline;opacity:1;fill:#f0661a;fill-opacity:1" />
    </g>
  </g>
</svg>
